<?xml version="1.0" encoding="UTF-8" standalone="no"?>
<svg
   xmlns:dc="http://purl.org/dc/elements/1.1/"
   xmlns:cc="http://creativecommons.org/ns#"
   xmlns:rdf="http://www.w3.org/1999/02/22-rdf-syntax-ns#"
   xmlns:svg="http://www.w3.org/2000/svg"
   xmlns="http://www.w3.org/2000/svg"
   viewBox="0 0 440 370"
   height="370"
   width="440"
   version="1.1"
   id="svg2">
  <metadata
     id="metadata8">
    <rdf:RDF>
      <cc:Work
         rdf:about="">
        <dc:format>image/svg+xml</dc:format>
        <dc:type
           rdf:resource="http://purl.org/dc/dcmitype/StillImage" />
        <dc:title></dc:title>
      </cc:Work>
    </rdf:RDF>
  </metadata>
  <defs
     id="defs6" />
  <path
     id="path3338"
     d="M 0,254.5019 0,139.0038 34.74665,69.501901 69.4933,0 220,0 370.50671,0 405.25335,69.501901 440,139.0038 440,254.5019 440,370 220,370 0,370 0,254.5019 Z m 420,4.9981 0,-89.5 -44.79992,0 -44.79993,0 -1.27814,6.18814 c -6.42571,31.11025 -33.96646,62.79771 -65.62947,75.51107 -16.9742,6.81549 -21.94507,7.69497 -43.49254,7.69497 -21.54747,0 -26.51834,-0.87948 -43.49254,-7.69497 -31.66301,-12.71336 -59.20376,-44.40082 -65.62947,-75.51107 L 109.59985,170 64.79993,170 20,170 l 0,89.5 0,89.5 200,0 200,0 0,-89.5 z M 237.92714,237.51533 c 38.17681,-8.03074 67.71498,-40.72374 70.85694,-78.42483 L 309.5,150.5 l 54.85369,-0.25859 c 43.19936,-0.20365 54.7478,-0.52234 54.35528,-1.5 -0.27413,-0.68277 -13.66958,-29.70391 -29.76767,-64.491409 L 359.67205,21 220,21 80.32795,21 51.0587,84.250001 C 34.96062,119.0375 21.56517,148.05864 21.29103,148.74141 c -0.39252,0.97766 11.15592,1.29635 54.35528,1.5 L 130.5,150.5 l 0.71592,8.5905 c 0.76673,9.20019 4.44056,22.28347 8.5391,30.4095 12.17181,24.13268 35.37727,42.19826 61.59126,47.94916 8.46952,1.85807 27.89543,1.8932 36.58086,0.0662 z"
     style="fill:#ffffff" />
</svg>
