<?xml version="1.0" encoding="UTF-8" standalone="no"?>
<svg
   xmlns:dc="http://purl.org/dc/elements/1.1/"
   xmlns:cc="http://creativecommons.org/ns#"
   xmlns:rdf="http://www.w3.org/1999/02/22-rdf-syntax-ns#"
   xmlns:svg="http://www.w3.org/2000/svg"
   xmlns="http://www.w3.org/2000/svg"
   version="1.1"
   id="svg2"
   viewBox="0 0 450.03882 449.42178"
   height="126.83681mm"
   width="127.01096mm">
  <defs
     id="defs4" />
  <metadata
     id="metadata7">
    <rdf:RDF>
      <cc:Work
         rdf:about="">
        <dc:format>image/svg+xml</dc:format>
        <dc:type
           rdf:resource="http://purl.org/dc/dcmitype/StillImage" />
        <dc:title></dc:title>
      </cc:Work>
    </rdf:RDF>
  </metadata>
  <g
     transform="translate(-56.410282,-145.00508)"
     id="layer1">
    <g
       style="fill:#777ff0;fill-opacity:0"
       transform="translate(-52.857143,142.85714)"
       id="g4270">
      <path
         id="path4284"
         d="m 152.99644,420.79634 c -0.43878,-1.14346 -0.55528,-7.23613 -0.25889,-13.53928 l 0.5389,-11.46029 0.30745,12.75103 0.30745,12.751 76.20676,0.41635 76.20675,0.41633 -76.25531,0.37192 -76.25532,0.37192 -0.79779,-2.07898 z m -0.11177,-87.66705 0,-13.15243 0.59231,6.57621 c 0.32577,3.61692 0.32577,9.53552 0,13.15244 l -0.59231,6.57622 0,-13.15244 z m 0.2003,-113.72988 0.0327,-51.06239 75.81991,-0.0219 75.81992,-0.0219 -75.41196,0.42328 -75.41196,0.42328 -0.44066,50.66099 -0.44067,50.66099 0.0327,-51.0624 z"
         style="fill:#777ff0;fill-opacity:0" />
      <path
         id="path4282"
         d="m 190.53342,345.89645 c 20.57866,-0.24361 54.69762,-0.24384 75.81992,-5.2e-4 l 38.40418,0.4424 -75.81992,5.2e-4 -75.81992,5.3e-4 37.41574,-0.44293 z m 0.88106,-26.30516 c 21.06323,-0.2432 55.53035,-0.2432 76.59359,0 l 38.29679,0.44217 -76.59359,0 -76.59359,0 38.2968,-0.44217 z m 0,-49.51505 c 21.06323,-0.2432 55.53035,-0.2432 76.59359,0 l 38.29679,0.44217 -76.59359,0 -76.59359,0 38.2968,-0.44217 z"
         style="fill:#777ff0;fill-opacity:0" />
      <path
         id="path4280"
         d="m 103.54506,470.46278 c -0.40655,-1.06742 -0.55991,-80.62328 -0.3408,-176.79079 l 0.39837,-174.85002 125.33497,-0.0136 125.33497,-0.0136 -124.94813,0.40953 -124.94814,0.40958 0,175.61459 0,175.61459 175.61608,0 175.61606,0 0.40595,-150.86623 0.40594,-150.86621 -0.0108,151.25305 -0.0108,151.25306 -176.05656,0.39343 -176.05656,0.39343 -0.73918,-1.94077 z m 86.98836,-75.05128 c 20.57866,-0.24361 54.69762,-0.24384 75.81992,-5.2e-4 l 38.40418,0.4424 -75.81992,5.2e-4 -75.81992,5.3e-4 37.41574,-0.44293 z M 403.40078,143.19597 c 12.55284,-0.26008 33.09385,-0.26008 45.64669,0 l 22.82334,0.47288 -45.64669,0 -45.64668,0 22.82334,-0.47288 z m -26.88908,-46.423672 -2.12364,-2.707854 2.70785,2.123645 c 2.57749,2.021406 3.39717,3.292063 2.12364,3.292063 -0.32131,0 -1.53984,-1.218534 -2.70785,-2.707854 z"
         style="fill:#777ff0;fill-opacity:0" />
      <path
         id="path4278"
         d="m 80.968752,492.89269 -2.123645,-2.70785 2.707854,2.12364 c 1.48932,1.16801 2.707854,2.38654 2.707854,2.70785 0,1.27353 -1.270657,0.45385 -3.292063,-2.12364 z m 394.770418,2.12364 c 0,-0.32131 1.21854,-1.53984 2.70786,-2.70785 l 2.70785,-2.12364 -2.12364,2.70785 c -2.0214,2.57749 -3.29207,3.39717 -3.29207,2.12364 z m -119.95194,-237.70696 0,-138.4874 0.41912,69.2437 c 0.23051,38.08404 0.23051,100.40337 0,138.4874 l -0.41912,69.2437 0,-138.4874 z M 79.618779,98.895944 c 0,-0.321315 1.218535,-1.539849 2.707855,-2.707855 l 2.707854,-2.123645 -2.123646,2.707854 c -2.021405,2.577487 -3.292063,3.397162 -3.292063,2.123646 z"
         style="fill:#777ff0;fill-opacity:0" />
      <path
         id="path4276"
         d="m 368.18357,395.44958 11.60014,-0.5563 0.41203,-112.89139 0.41203,-112.8914 -0.0155,113.34315 -0.0155,113.34313 -11.997,0.10461 -11.99702,0.1046 11.60015,-0.55629 z m 12.2214,-271.98558 0.005,-20.11548 0.54278,10.50893 c 0.29853,5.77991 0.2963,14.83188 -0.005,20.11549 l -0.5477,9.60655 0.005,-20.11549 z"
         style="fill:#777ff0;fill-opacity:0" />
      <path
         id="path4274"
         d="m 304.5245,408.94921 0,-13.15244 0.59233,6.57622 c 0.32576,3.61692 0.32576,9.53552 0,13.15244 l -0.59233,6.57621 0,-13.15243 z m 0,-75.81992 0,-13.15243 0.59233,6.57621 c 0.32576,3.61692 0.32576,9.53552 0,13.15244 l -0.59233,6.57622 0,-13.15244 z m 0.15195,-113.72988 -10e-4,-51.06239 0.46579,25.04608 c 0.2562,13.77535 0.25668,36.75343 0.001,51.0624 l -0.46481,26.01631 -0.001,-51.0624 z"
         style="fill:#777ff0;fill-opacity:0" />
      <path
         id="path4272"
         d="m 85.838655,495.17026 -3.837869,-1.95173 -1.951716,-3.83786 -1.951716,-3.83787 0.373876,-192.21487 0.373877,-192.21486 3.524155,-3.524314 3.524155,-3.524312 140.378953,-0.433641 140.37896,-0.433641 3.52089,0.859836 3.52088,0.859835 3.05534,3.055332 3.05533,3.055335 0,21.66283 0,21.66284 45.57388,0 45.57387,0 3.95541,1.8022 3.95542,1.80221 1.60573,5.54768 1.60572,5.54769 -0.45947,165.13638 -0.45945,165.13639 -3.52431,3.52425 -3.52431,3.52425 -192.21487,0.37387 -192.214866,0.37388 -3.837869,-1.95171 z m 371.332375,-174.41973 0,-151.63984 -38.68363,0 -38.68363,0 0,112.95621 0,112.9562 -11.60509,0 -11.60509,0 0,-138.4874 0,-138.4874 -126.88232,0 -126.88231,0 0,177.17103 0,177.17104 177.17103,0 177.17104,0 0,-151.63984 z m -303.27968,88.19868 0,-12.37876 75.04625,0 75.04625,0 0,12.37876 0,12.37876 -75.04625,0 -75.04625,0 0,-12.37876 z m 0,-75.81992 0,-12.37876 75.04625,0 75.04625,0 0,12.37876 0,12.37876 -75.04625,0 -75.04625,0 0,-12.37876 z m 0,-113.72988 0,-50.28872 75.04625,0 75.04625,0 0,50.28872 0,50.28872 -75.04625,0 -75.04625,0 0,-50.28872 z"
         style="fill:#777ff0;fill-opacity:0" />
    </g>
    <g
       style="fill:#ffffff"
       transform="translate(-98.571428,64.285717)"
       id="g4318">
      <path
         id="path4320"
         d="m 164.50002,528.71782 -4,-1.42333 -1.73694,-2.13223 -1.73695,-2.13223 -1.02221,-3.79619 -1.02221,-3.7962 0.25916,-212.35914 0.25915,-212.359137 1.76693,-3.23307 1.76693,-3.23308 3.23307,-1.76692 3.23307,-1.76693 158.54398,0 158.54398,0 2.75376,1.80433 2.75376,1.80434 1.94852,3.19566 1.94852,3.19567 0.004,23.249997 0.003,23.25 51.9652,0 51.96521,0 3.52085,3.09135 3.52085,3.09134 1.02444,3.80451 1.02445,3.80451 -0.2605,184.35414 -0.2605,184.35415 -1.76693,3.23307 -1.76692,3.23308 -3.23308,1.76692 -3.23307,1.76693 -213,0.21089 -213,0.2109 -4,-1.42333 z m 412.5,-195.49846 0,-169 -42.5,0 -42.5,0 0,126.5 0,126.5 -13.5,0 -13.5,0 0,-154.5 0,-154.5 -141,0 -141,0 0,197 0,197 197,0 197,0 0,-169 z m -337,98.5 0,-13.5 84,0 84,0 0,13.5 0,13.5 -84,0 -84,0 0,-13.5 z m 0,-84 0,-13.5 84,0 84,0 0,13.5 0,13.5 -84,0 -84,0 0,-13.5 z m 0,-127 0,-55.5 84,0 84,0 0,55.5 0,55.5 -84,0 -84,0 0,-55.5 z"
         style="fill:#ffffff" />
    </g>
  </g>
</svg>
