<svg xmlns:dc="http://purl.org/dc/elements/1.1/" xmlns:cc="http://creativecommons.org/ns#" xmlns:rdf="http://www.w3.org/1999/02/22-rdf-syntax-ns#" xmlns:svg="http://www.w3.org/2000/svg" xmlns="http://www.w3.org/2000/svg" height="649.78528" width="805.00336" version="1.1" id="svg2">
	<defs
		 id="defs8" />
	<path
		 id="path4"
		 style="fill:#777777"
		 d="M 0,355.82965 0,61.874056 10.25,56.386976 C 52.19808,33.931151 105.5045,14.137963 145,6.3530094 c 24.3677,-4.803115 36.84544,-5.97577696 64,-6.01474496 25.67885,-0.03685 33.03582,0.557907 56,4.52718496 35.91975,6.2086026 79.0455,20.8874776 122.01408,41.5303906 l 15.51409,7.453256 15.48591,-7.456375 c 132.9685,-64.023536 234.64797,-61.994429 371.48588,7.413345 l 15,7.60839 0.2517,293.989394 0.2517,293.98941 -24.2517,-12.11673 c -54.4962,-27.22767 -97.71181,-41.30327 -144.78714,-47.15812 -18.12901,-2.25474 -55.63092,-2.27685 -73.55696,-0.0434 -45.11118,5.6206 -84.42422,17.55603 -140.48505,42.65122 l -19.80255,8.86446 -16.30998,-8.20468 C 341.21422,610.95232 297.41559,597.07612 252.38148,591.11347 236.3654,588.99289 195.59168,588.68787 179.5,590.56826 125.80318,596.84299 69.41474,614.91729 9.2499996,645.13886 L 0,649.78526 0,355.82965 Z m 53,235.93991 c 40.21574,-16.12969 80.70339,-26.72202 121,-31.65587 19.87331,-2.43326 59.84546,-2.42722 80,0.0121 40.62884,4.91731 78.66553,15.50684 120.37532,33.51286 6.53142,2.8196 12.04392,5.12655 12.25,5.12655 C 386.83139,598.76519 387,482.18183 387,339.69106 l 0,-259.074114 -16.25,-7.79042 C 321.87629,49.395973 274.99087,35.4253 233,31.780503 175.56116,26.794826 116.4923,39.903655 45.74035,73.338016 l -14.65894,6.92718 -0.0407,260.263414 -0.0407,260.26342 3.75,-1.60341 c 2.0625,-0.88188 10.275,-4.22046 18.25,-7.41906 z m 384.39713,0.56521 C 480.41681,574.67711 520.59774,563.87232 561,559.09753 c 18.95503,-2.24013 57.05295,-2.22217 75.82836,0.0358 28.32732,3.40662 52.45772,8.77304 80.1716,17.82957 15.3241,5.00769 43.2363,15.84156 50.9416,19.77253 2.1883,1.11639 4.4467,2.02981 5.0186,2.02981 0.7171,-5e-5 1.0398,-80.38179 1.0398,-258.99001 l 0,-258.989964 -8.9834,-4.51177 c -29.91,-15.0217 -64.3152,-28.089209 -93.51656,-35.51872 -30.32793,-7.71614 -56.02236,-10.631449 -85,-9.644161 -49.60773,1.69017 -96.21222,14.855636 -160.20463,45.256771 l -8.20464,3.89781 -0.0454,259.749994 c -0.025,142.8625 0.24584,259.75 0.60176,259.75 0.35592,0 8.79342,-3.34369 18.75,-7.43042 z" />
</svg>
