<?xml version="1.0" encoding="UTF-8" standalone="no"?>
<svg
   xmlns:dc="http://purl.org/dc/elements/1.1/"
   xmlns:cc="http://creativecommons.org/ns#"
   xmlns:rdf="http://www.w3.org/1999/02/22-rdf-syntax-ns#"
   xmlns:svg="http://www.w3.org/2000/svg"
   xmlns="http://www.w3.org/2000/svg"
   id="svg4169"
   version="1.1"
   width="626.71051"
   height="779"
   viewBox="0 0 626.71051 779">
  <metadata
     id="metadata4175">
    <rdf:RDF>
      <cc:Work
         rdf:about="">
        <dc:format>image/svg+xml</dc:format>
        <dc:type
           rdf:resource="http://purl.org/dc/dcmitype/StillImage" />
        <dc:title></dc:title>
      </cc:Work>
    </rdf:RDF>
  </metadata>
  <defs
     id="defs4173" />
  <g
     id="g4725"
     style="fill:#808080">
    <path
       style="fill:#ffffff"
       d="M 0,389.5 0,0 13.5,0 27,0 27,47.998355 27,95.996711 626.71051,96.5 c -56.65574,80.57147 -61.47627,86.57692 -135.7041,190.5 0,0.275 30.53342,43.25 67.85205,95.5 l 67.85205,95 L 27,478.00329 27,628.50164 27,779 13.5,779 0,779 Z m 573.26325,60.25 C 462.89042,303.70973 452,287.71805 452,287 452,286.28195 562.8178,137.55101 573.26325,124.25 373.28671,123.13118 269.29173,123 27,123 l 0,164 0,164 c 221.48134,-0.96548 377.71007,-1.319 546.26325,-1.25 z"
       id="path4727" />
  </g>
</svg>
