<?xml version="1.0" encoding="UTF-8" standalone="no"?>
<svg
   xmlns:dc="http://purl.org/dc/elements/1.1/"
   xmlns:cc="http://creativecommons.org/ns#"
   xmlns:rdf="http://www.w3.org/1999/02/22-rdf-syntax-ns#"
   xmlns:svg="http://www.w3.org/2000/svg"
   xmlns="http://www.w3.org/2000/svg"
   version="1.1"
   id="svg2"
   viewBox="0 0 790.54323 790.54324"
   height="223.10887mm"
   width="223.10887mm">
  <defs
     id="defs4" />
  <metadata
     id="metadata7">
    <rdf:RDF>
      <cc:Work
         rdf:about="">
        <dc:format>image/svg+xml</dc:format>
        <dc:type
           rdf:resource="http://purl.org/dc/dcmitype/StillImage" />
        <dc:title></dc:title>
      </cc:Work>
    </rdf:RDF>
  </metadata>
  <g
     transform="translate(52.151393,-98.155385)"
     id="layer1">
    <path
       id="path4174"
       d="m -46.677173,882.6497 c -5.02761,-5.55543 -5.47422,-37.3572 -5.47422,-389.7974 0,-367.56852 0.25504,-383.97928 6.04895,-389.2227 5.55544,-5.027595 37.3571996,-5.474215 389.797393,-5.474215 367.56851,0 383.97927,0.25504 389.22269,6.048945 5.02762,5.55544 5.47423,37.3572 5.47423,389.7974 0,367.56852 -0.25506,383.97927 -6.04895,389.22269 -5.55544,5.02762 -37.3572,5.47423 -389.7974,5.47423 -367.568513,0 -383.979283,-0.25506 -389.222693,-6.04895 z m 735.453353,-314.79916 0,-271.23241 -345.65595,0 -345.6559434,0 0,271.23241 0,271.23242 345.6559434,0 345.65595,0 0,-271.23242 z m -568.92654,97.57752 0,-51.26954 51.26954,0 51.26955,0 0,51.26954 0,51.26954 -51.26955,0 -51.26954,0 0,-51.26954 z m 172.00105,0 0,-51.26954 51.26954,0 51.26954,0 0,51.26954 0,51.26954 -51.26954,0 -51.26954,0 0,-51.26954 z m 172.00104,0 0,-51.26954 51.26955,0 51.26954,0 0,51.26954 0,51.26954 -51.26954,0 -51.26955,0 0,-51.26954 z m -344.00209,-196.80889 0,-49.61568 51.26954,0 51.26955,0 0,49.61568 0,49.61569 -51.26955,0 -51.26954,0 0,-49.61569 z m 172.00105,0 0,-49.61568 51.26954,0 51.26954,0 0,49.61568 0,49.61569 -51.26954,0 -51.26954,0 0,-49.61569 z m 172.00104,0 0,-49.61568 51.26955,0 51.26954,0 0,49.61568 0,49.61569 -51.26954,0 -51.26955,0 0,-49.61569 z m 224.92445,-272.88627 0,-47.96183 -345.65595,0 -345.6559434,0 0,47.96183 0,47.96183 345.6559434,0 345.65595,0 0,-47.96183 z"
       style="fill:#777777;fill-opacity:1" />
  </g>
</svg>
