<?xml version="1.0" encoding="UTF-8" standalone="no"?>
<svg
   xmlns:dc="http://purl.org/dc/elements/1.1/"
   xmlns:cc="http://creativecommons.org/ns#"
   xmlns:rdf="http://www.w3.org/1999/02/22-rdf-syntax-ns#"
   xmlns:svg="http://www.w3.org/2000/svg"
   xmlns="http://www.w3.org/2000/svg"
   viewBox="0 0 544.00464 421.99796"
   height="421.99796"
   width="544.00464"
   version="1.1"
   id="svg2">
  <metadata
     id="metadata8">
    <rdf:RDF>
      <cc:Work
         rdf:about="">
        <dc:format>image/svg+xml</dc:format>
        <dc:type
           rdf:resource="http://purl.org/dc/dcmitype/StillImage" />
        <dc:title></dc:title>
      </cc:Work>
    </rdf:RDF>
  </metadata>
  <defs
     id="defs6" />
  <path
     id="path3338"
     d="M 110.24933,311.74525 0,201.49253 50.001368,151.49866 100.00274,101.50479 160.75476,162.2507 221.50679,222.9966 333.00173,111.4983 444.49667,0 494.25066,49.746531 544.00465,99.493061 382.75452,260.74552 c -88.68758,88.68885 -161.47642,161.25245 -161.753,161.25245 -0.27657,0 -50.11505,-49.61372 -110.75219,-110.25272 z M 366.25551,244.24453 511.00637,99.491082 477.75061,66.246439 444.49486,33.001795 333.50015,143.99988 c -61.04709,61.04895 -111.44409,110.99809 -111.99333,110.99809 -0.54924,0 -28.11193,-27.11054 -61.25044,-60.24565 l -60.25182,-60.24565 -33.503062,33.49186 -33.50305,33.49186 93.749812,93.75379 c 51.5624,51.56458 93.97629,93.75379 94.2531,93.75379 0.27681,0 65.64117,-65.13905 145.25415,-144.75344 z"
     style="fill:#fefefe" />
</svg>
