<?xml version="1.0" encoding="UTF-8" standalone="no"?>
<svg
   xmlns:dc="http://purl.org/dc/elements/1.1/"
   xmlns:cc="http://creativecommons.org/ns#"
   xmlns:rdf="http://www.w3.org/1999/02/22-rdf-syntax-ns#"
   xmlns:svg="http://www.w3.org/2000/svg"
   xmlns="http://www.w3.org/2000/svg"
   height="783.80823"
   width="783.20013"
   version="1.1"
   id="svg2">
  <metadata
     id="metadata10">
    <rdf:RDF>
      <cc:Work
         rdf:about="">
        <dc:format>image/svg+xml</dc:format>
        <dc:type
           rdf:resource="http://purl.org/dc/dcmitype/StillImage" />
        <dc:title></dc:title>
      </cc:Work>
    </rdf:RDF>
  </metadata>
  <defs
     id="defs8" />
  <path
     id="path4"
     style="fill:#ffffff"
     d="m 349.14505,779.82865 c -1.51423,-2.39107 -15.08641,-23.9224 -30.1604,-47.8474 -15.07399,-23.925 -27.93089,-44.03987 -28.57089,-44.69971 -0.90015,-0.92807 -13.05098,2.94705 -53.66363,17.11431 -28.875,10.07271 -53.40938,18.59768 -54.52084,18.94437 -1.66961,0.52079 -12.6355,-10.10274 -63.09338,-61.12359 L 58.06338,600.4627 77.45549,546.47198 C 89.12883,513.97154 96.52967,491.98504 96.04886,491.23461 95.60956,490.54896 73.87513,476.2198 47.75013,459.39204 21.62513,442.56428 0.14269361,428.69283 0.01137861,428.5666 -0.57457839,428.0033 21.66207,256.67651 22.4106,255.9872 c 0.46175,-0.42521 25.13953,-8.74613 54.83953,-18.49093 29.7,-9.74479 54.11415,-17.82383 54.25367,-17.95342 0.13952,-0.12958 -1.99798,-24.88922 -4.75,-55.02141 -2.75202,-30.13219 -4.99289,-56.19304 -4.97971,-57.91299 0.0236,-3.07355 1.29468,-3.88206 74.09234,-47.1272 40.7376,-24.2 74.48405,-43.885091 74.9921,-43.744647 0.50804,0.140444 21.88286,14.23294 47.49958,31.316658 25.61672,17.083717 47.11971,31.270001 47.78442,31.525074 0.66472,0.255074 14.50011,-12.037422 30.74534,-27.316657 16.24522,-15.279236 35.1712,-33.063709 42.05774,-39.521053 L 451.46659,0 532.23004,31.445641 c 44.4199,17.295103 80.86845,31.578384 80.99678,31.740625 0.12833,0.162241 1.90221,22.794984 3.94197,50.294984 2.03975,27.5 4.0175,50.26935 4.39499,50.59855 0.37749,0.32921 23.14137,2.45923 50.5864,4.73339 27.44503,2.27416 49.99317,4.25481 50.10697,4.40145 0.1138,0.14663 13.7357,36.04161 30.2709,79.76661 16.53519,43.725 30.33306,80.18421 30.66194,81.02047 0.41276,1.04955 -11.78334,14.49589 -39.37811,43.41481 -21.98683,23.04189 -39.69888,42.38268 -39.36009,42.97953 0.33878,0.59686 14.4945,22.34881 31.45715,48.33768 16.96266,25.98887 30.84119,47.52035 30.84119,47.84773 0,0.50412 -88.62898,147.20124 -89.58057,148.27218 -0.182,0.20483 -26.03794,-2.21055 -57.45766,-5.36751 -31.9967,-3.21493 -57.47814,-5.35829 -57.92555,-4.8724 -0.43935,0.47713 -8.97102,24.9388 -18.95928,54.35928 -9.98826,29.42047 -18.47918,53.77847 -18.86871,54.12888 -0.38952,0.35042 -37.83323,4.99165 -83.20823,10.31385 -45.375,5.32221 -83.92919,9.92054 -85.67597,10.21852 -2.88736,0.49255 -3.42615,0.14673 -5.92911,-3.80562 z m 86.48986,-38.6488 64.38478,-7.6986 19.38112,-56.93257 c 10.65961,-31.31291 19.59116,-57.1426 19.84787,-57.39931 0.4529,-0.4529 113.82328,10.45688 118.16571,11.37123 1.91848,0.40396 6.06366,-5.98201 36.5,-56.2311 18.88466,-31.17775 34.22125,-57.05761 34.08132,-57.51079 -0.13993,-0.45319 -14.64501,-22.81187 -32.23351,-49.68597 -17.58851,-26.8741 -32.2549,-49.58073 -32.592,-50.45918 -0.43807,-1.14161 8.59189,-11.23185 31.65761,-35.37475 17.74877,-18.57766 36.52434,-38.11801 41.72348,-43.423 l 9.45299,-9.64545 -23.33492,-61.70833 c -18.59368,-49.17031 -23.74985,-61.85554 -25.37707,-62.43284 -1.12319,-0.39849 -25.44216,-2.64468 -54.04216,-4.99154 -28.6,-2.34685 -52.18888,-4.4505 -52.41974,-4.67477 -0.23085,-0.22428 -2.2106,-24.59389 -4.39943,-54.1547 -2.18884,-29.56081 -4.08729,-53.884259 -4.21878,-54.052106 -0.13149,-0.167847 -27.96586,-11.10568 -61.85417,-24.306295 L 458.74292,37.868661 416.99652,77.087657 C 394.03601,98.658104 374.09497,117.36374 372.6831,118.65575 l -2.56703,2.34909 L 320.6831,87.807604 C 293.49497,69.549129 270.57513,54.581322 269.75013,54.545813 267.12195,54.432691 155.74914,121.2553 155.76106,122.93815 c 0.006,0.8487 2.44648,27.8681 5.42327,60.0431 2.97679,32.175 5.10937,58.78126 4.73907,59.12502 -0.3703,0.34376 -26.09827,9.06786 -57.17327,19.38688 -31.075,10.31903 -56.68528,18.92306 -56.91175,19.12007 -0.48359,0.4207 -17.2541,131.5801 -16.85732,131.83832 0.14799,0.0963 22.54407,14.48207 49.76907,31.96836 27.225,17.48629 50.01498,32.30357 50.6444,32.9273 0.85769,0.84994 -3.96955,15.39045 -19.268,58.03878 l -20.41239,56.90474 46.26799,46.59526 c 25.4474,25.6274 46.73222,46.72184 47.2996,46.87653 0.56739,0.1547 26.21739,-8.51277 57,-19.26104 30.78262,-10.74826 56.46459,-19.3519 57.07104,-19.11919 0.60645,0.2327 15.45645,23.18532 33,51.00582 19.454,30.85008 32.48252,50.5647 33.39736,50.53653 0.825,-0.0254 30.47315,-3.51055 65.88478,-7.74478 z M 372.95385,537.87856 c -18.283,-2.47033 -39.55298,-9.86647 -55.69541,-19.3668 -35.75524,-21.04307 -60.6802,-56.03592 -69.6917,-97.8421 -3.16337,-14.67555 -3.16337,-42.70127 0,-57.37682 6.45067,-29.92595 19.23564,-53.49408 40.61827,-74.87671 21.38263,-21.38263 44.95076,-34.1676 74.87671,-40.61827 14.67555,-3.16337 42.70127,-3.16337 57.37682,0 29.92595,6.45067 53.49408,19.23564 74.87671,40.61827 21.38263,21.38263 34.1676,44.95076 40.61827,74.87671 3.16337,14.67555 3.16337,42.70127 0,57.37682 -6.45067,29.92595 -19.23564,53.49408 -40.61827,74.87671 -21.27793,21.27794 -45.22721,34.30889 -74.36612,40.46309 -11.38234,2.40397 -36.73074,3.39112 -47.99528,1.8691 z m 40.51082,-33.80491 c 35.32761,-6.88683 64.30352,-28.87486 80.33107,-60.9583 8.9937,-18.00328 12.44596,-34.47263 11.66189,-55.6341 -0.64225,-17.33371 -3.51151,-29.22584 -10.66405,-44.19905 -15.98434,-33.46176 -44.63845,-55.85602 -81.04345,-63.33847 -9.03027,-1.85603 -12.6696,-2.0851 -26,-1.63656 -10.85938,0.3654 -17.74546,1.11623 -23,2.50785 -22.91366,6.06845 -39.77968,15.83987 -55.20061,31.98078 -20.88336,21.85837 -31.79939,49.04098 -31.79939,79.18545 0,54.43237 37.64951,100.71716 91,111.87173 12.88589,2.69419 31.55347,2.78632 44.71454,0.22067 z" />
</svg>
