<?xml version="1.0" encoding="UTF-8" standalone="no"?>
<svg
   xmlns:dc="http://purl.org/dc/elements/1.1/"
   xmlns:cc="http://creativecommons.org/ns#"
   xmlns:rdf="http://www.w3.org/1999/02/22-rdf-syntax-ns#"
   xmlns:svg="http://www.w3.org/2000/svg"
   xmlns="http://www.w3.org/2000/svg"
   viewBox="0 0 863.71936 670.54022"
   height="670.54022"
   width="863.71936"
   version="1.1"
   id="svg3336">
  <metadata
     id="metadata3342">
    <rdf:RDF>
      <cc:Work
         rdf:about="">
        <dc:format>image/svg+xml</dc:format>
        <dc:type
           rdf:resource="http://purl.org/dc/dcmitype/StillImage" />
        <dc:title></dc:title>
      </cc:Work>
    </rdf:RDF>
  </metadata>
  <defs
     id="defs3340" />
  <path
     id="path3368"
     d="M 64.502981,661.54383 C 28.549261,603.42034 7.1324506,535.50739 0.95403032,460.02938 c -1.27979,-15.63452 -1.26992,-57.71496 0.0171,-73 C 13.578531,237.30433 98.358567,110.48916 229.94513,44.526846 c 118.00082,-59.152008 264.94496,-59.38208 388.34474,-0.608036 48.6997,23.195163 97.47146,58.6575 132.35584,96.23696 56.75111,61.1356 92.56401,131.89048 106.73461,210.87361 15.74661,87.76739 1.73974,189.69282 -37.37899,272 -6.30151,13.25859 -17.21159,32.85995 -23.23799,41.75 l -3.89781,5.75 -87.96274,0 -87.96274,0 0,-17.39301 c 0,-14.93766 0.2233,-17.4787 1.58179,-18 0.86998,-0.33385 36.62513,-0.60699 79.45589,-0.60699 l 77.8741,0 3.92331,-6.75 c 24.32285,-41.84713 40.62911,-97.41222 46.76332,-159.35031 1.96619,-19.85296 2.27323,-63.44782 0.56272,-79.89969 C 817.70479,298.15314 779.71952,218.85116 715.01559,154.52785 651.24903,91.136406 568.42137,50.99507 475.45821,38.429535 455.98943,35.798002 411.53094,34.759827 390.60941,36.448182 274.70306,45.801758 172.7307,102.69948 106.71696,194.85221 68.842281,247.72388 45.851871,308.19818 37.268901,377.52938 c -2.49566,20.1593 -2.50081,73.70098 -0.009,96 6.24858,55.92355 20.40814,105.3348 41.83858,146 3.33326,6.325 6.75603,12.2875 7.60615,13.25 1.4473,1.63861 6.53022,1.75 79.855509,1.75 77.81716,0 78.31671,0.0128 79.40242,2.04151 0.69789,1.30403 0.98153,7.71609 0.78518,17.75 l -0.30744,15.70849 -88.18608,0.25542 -88.186099,0.25542 -5.56494,-8.99639 z M 408.44009,600.97407 c -12.67768,-2.14211 -25.11035,-6.12012 -37.13972,-11.88337 -39.75321,-19.04569 -66.07458,-51.53238 -77.06463,-95.11568 -2.57834,-10.2249 -2.76008,-12.32843 -2.76008,-31.94564 0,-19.43736 0.19818,-21.7846 2.66331,-31.54408 3.41882,-13.53521 6.66778,-22.09545 12.82548,-33.79212 16.79626,-31.90487 45.45974,-56.4084 79.0245,-67.55565 15.64784,-5.19683 23.86725,-6.65402 40.95114,-7.26012 17.20113,-0.61026 27.87115,0.65094 43.277,5.11539 4.81427,1.39512 9.35844,2.53658 10.09816,2.53658 0.73972,0 24.16403,-29.01767 52.05403,-64.48372 27.89001,-35.46604 51.12798,-64.7426 51.63995,-65.05901 0.51197,-0.31642 0.93086,-0.13393 0.93086,0.40552 0,0.53945 -13.70654,35.50703 -30.45898,77.70573 l -30.45898,76.72492 8.84385,9.34474 c 19.29248,20.38517 31.34975,43.25721 37.25635,70.67341 3.09953,14.38684 3.11205,40.80573 0.026,54.90208 -6.23629,28.4861 -18.58767,51.28776 -38.64751,71.34645 -11.38932,11.38867 -23.82209,20.52479 -36.87861,27.09995 -9.60268,4.83583 -28.33701,10.87128 -39.60836,12.76021 -11.49464,1.92636 -35.24384,1.93881 -46.57378,0.0244 z m 49.70581,-36.7554 c 30.67205,-8.06373 57.26321,-30.284 69.89477,-58.40587 17.72341,-39.45795 10.10628,-84.83694 -19.47639,-116.03043 -12.56738,-13.2517 -26.05292,-21.79751 -43.62419,-27.64474 -49.59305,-16.5032 -104.13648,5.91119 -127.49071,52.39175 -8.71254,17.34007 -12.16885,33.64921 -11.21441,52.91693 2.29363,46.30232 34.94672,85.97503 79.77216,96.92126 12.49863,3.05212 12.27997,3.03095 27.93296,2.70485 11.65515,-0.24281 16.40425,-0.8027 24.20581,-2.85375 z"
     style="fill:#77777f;fill-opacity:0.94117647" />
</svg>
