<?xml version="1.0" encoding="UTF-8" standalone="no"?>
<svg
   xmlns:dc="http://purl.org/dc/elements/1.1/"
   xmlns:cc="http://creativecommons.org/ns#"
   xmlns:rdf="http://www.w3.org/1999/02/22-rdf-syntax-ns#"
   xmlns:svg="http://www.w3.org/2000/svg"
   xmlns="http://www.w3.org/2000/svg"
   id="svg2"
   version="1.1"
   width="408"
   height="429"
   viewBox="0 0 408 429">
  <metadata
     id="metadata8">
    <rdf:RDF>
      <cc:Work
         rdf:about="">
        <dc:format>image/svg+xml</dc:format>
        <dc:type
           rdf:resource="http://purl.org/dc/dcmitype/StillImage" />
        <dc:title></dc:title>
      </cc:Work>
    </rdf:RDF>
  </metadata>
  <defs
     id="defs6" />
  <path
     style="fill:#999999"
     d="m 40,266 0,-163 -20,0 -20,0 0,-11 0,-11 66,0 66,0 0,-40.5 0,-40.5 72,0 72,0 0,40.5 0,40.5 66,0 66,0 0,11 0,11 -20,0 -20,0 0,163 0,163 -164,0 -164,0 0,-163 z m 306,-10.5 0,-152.5 -142,0 -142,0 0,152.5 0,152.5 142,0 142,0 0,-152.5 z m -234,0 0,-102.5 10.5,0 10.5,0 0,102.5 0,102.5 -10.5,0 -10.5,0 0,-102.5 z m 81,0 0,-102.5 11,0 11,0 0,102.5 0,102.5 -11,0 -11,0 0,-102.5 z m 82,0 0,-102.5 10.5,0 10.5,0 0,102.5 0,102.5 -10.5,0 -10.5,0 0,-102.5 z M 255,51 l 0,-30 -51,0 -51,0 0,30 0,30 51,0 51,0 0,-30 z"
     id="path3338" />
</svg>
