<?xml version="1.0" encoding="UTF-8" standalone="no"?>
<svg
   xmlns:dc="http://purl.org/dc/elements/1.1/"
   xmlns:cc="http://creativecommons.org/ns#"
   xmlns:rdf="http://www.w3.org/1999/02/22-rdf-syntax-ns#"
   xmlns:svg="http://www.w3.org/2000/svg"
   xmlns="http://www.w3.org/2000/svg"
   viewBox="0 0 956.10596 956.49109"
   height="956.49109"
   width="956.10596"
   version="1.1"
   id="svg3336">
  <metadata
     id="metadata3342">
    <rdf:RDF>
      <cc:Work
         rdf:about="">
        <dc:format>image/svg+xml</dc:format>
        <dc:type
           rdf:resource="http://purl.org/dc/dcmitype/StillImage" />
        <dc:title></dc:title>
      </cc:Work>
    </rdf:RDF>
  </metadata>
  <defs
     id="defs3340" />
  <path
     id="path3394"
     d="M 449.22851,955.57142 C 355.88982,949.69583 267.49502,917.46414 193.18227,862.20844 156.56754,834.98332 121.4252,799.84098 94.200079,763.22625 44.581517,696.49483 12.857729,616.59868 3.2543408,534.18001 -4.9239742,463.99167 2.3436788,393.67329 24.7002,326.68001 48.521167,255.29839 86.667864,193.69956 140.20796,140.15946 216.31076,64.056678 312.79964,16.845062 419.19828,3.650657 c 93.72449,-11.622696 188.87464,4.657747 272.86434,46.687815 66.50267,33.279213 125.68249,82.931868 170.19432,142.795298 47.33343,63.65817 78.22387,138.70409 89.3407,217.04624 3.45566,24.35261 4.50829,40.22977 4.50829,68 0,27.77023 -1.05263,43.64739 -4.50829,68 -17.82931,125.64616 -85.8939,239.86671 -188.32289,316.02843 -90.07417,66.97521 -202.46217,100.3871 -314.04624,93.36298 z m 79.5,-41.32981 c 100.27661,-12.51092 189.05391,-55.64532 259.4851,-126.0765 70.74142,-70.74143 113.56778,-159.15487 126.17569,-260.4851 1.42831,-11.47936 1.80415,-21.79119 1.80415,-49.5 0,-27.70881 -0.37584,-38.02064 -1.80415,-49.5 C 901.78139,327.34978 858.95503,238.93634 788.21361,168.19491 717.48234,97.463645 629.49589,54.828451 527.72851,41.972833 c -19.27502,-2.43489 -79.72498,-2.43489 -99,0 -115.06703,14.535678 -214.97944,68.626037 -287.61279,155.707177 -54.85731,65.76921 -88.177329,143.59441 -99.11422,231.5 -2.484736,19.97114 -2.484736,78.02886 0,98 14.824283,119.15062 71.76987,221.38605 164.38409,295.12166 66.66511,53.07602 149.2253,85.81142 235.34292,93.31429 15.79712,1.3763 72.07944,0.48721 87,-1.37435 z m -70,-366.5616 0,-189 19.5,0 19.5,0 0,189 0,189 -19.5,0 -19.5,0 0,-189 z m 12.25362,-270.40406 c -6.56579,-2.1381 -13.71211,-7.19834 -20.26445,-14.34907 -7.21204,-7.87066 -11.18773,-15.5961 -11.79507,-22.91979 -0.64351,-7.75996 4.49955,-17.95648 13.6776,-27.11691 8.46856,-8.45229 16.16269,-12.49022 24.8542,-13.04366 5.60286,-0.35676 7.13759,-0.0182 13.06148,2.88171 8.70156,4.25961 19.74039,15.14185 23.78924,23.45178 2.3917,4.90876 2.91987,7.27311 2.90406,13 -0.0167,6.06285 -0.48328,7.86075 -3.48493,13.42938 -9.49374,17.6127 -29.30106,29.04354 -42.74213,24.66656 z"
     style="fill:#777" />
</svg>
