<?xml version="1.0" encoding="UTF-8" standalone="no"?>
<svg
   xmlns:dc="http://purl.org/dc/elements/1.1/"
   xmlns:cc="http://creativecommons.org/ns#"
   xmlns:rdf="http://www.w3.org/1999/02/22-rdf-syntax-ns#"
   xmlns:svg="http://www.w3.org/2000/svg"
   xmlns="http://www.w3.org/2000/svg"
   viewBox="0 0 762.14301 661.35876"
   height="661.35876"
   width="762.14301"
   version="1.1"
   id="svg4170">
  <metadata
     id="metadata4176">
    <rdf:RDF>
      <cc:Work
         rdf:about="">
        <dc:format>image/svg+xml</dc:format>
        <dc:type
           rdf:resource="http://purl.org/dc/dcmitype/StillImage" />
        <dc:title></dc:title>
      </cc:Work>
    </rdf:RDF>
  </metadata>
  <defs
     id="defs4174" />
  <path
     id="path4180"
     d="m 342.51681,659.86239 c -16.10863,-3.45442 -29.58406,-10.53074 -41.36604,-21.72247 -13.29995,-12.63365 -21.30652,-26.30973 -25.37228,-43.33857 -2.84317,-11.90822 -2.30737,-33.13533 1.1056,-43.80135 7.66556,-23.95596 22.92162,-42.02111 44.64912,-52.87032 38.74772,-19.34795 85.4327,-6.88712 110.03703,29.37032 15.25191,22.47552 18.58909,52.64945 8.72217,78.86345 -9.93371,26.39142 -35.3064,47.7549 -63.60726,53.55647 -9.46777,1.94086 -24.97117,1.91475 -34.16834,-0.0575 z m 31.65187,-28.93383 c 15.62815,-4.04966 29.5771,-15.27003 36.81952,-29.61717 9.07097,-17.96949 7.83011,-40.54256 -3.15554,-57.40399 -10.22969,-15.70113 -29.62819,-26.37267 -47.93967,-26.37267 -12.79577,0 -28.86776,6.34365 -38.63036,15.24749 -21.48087,19.59134 -25.12262,50.96626 -8.70997,75.0393 7.43349,10.90297 19.82546,19.69478 32.61484,23.13944 7.10114,1.9126 21.5575,1.89645 29.00118,-0.0324 z m 215.22431,29.49192 c -33.7639,-6.6831 -59.8513,-31.18344 -68.59346,-64.42048 -3.02166,-11.48809 -3.04199,-28.85063 -0.048,-41 12.98486,-52.69191 70.82599,-80.6211 119.98177,-57.93444 28.82966,13.30563 47.94967,41.35417 49.84593,73.12263 1.65708,27.76143 -9.77676,53.895 -31.44826,71.87923 -7.42066,6.15808 -23.39527,14.41987 -32.73795,16.9315 -7.24323,1.94722 -29.93894,2.8192 -37,1.42156 z m 29.45466,-29.39582 c 15.09741,-4.01776 30.48906,-16.34645 36.85981,-29.52466 12.86517,-26.61225 5.146,-57.19867 -18.51552,-73.36587 -23.24969,-15.88581 -52.98042,-13.17993 -72.78215,6.62411 -17.83495,17.83703 -22.28537,42.64952 -11.68618,65.1542 7.15131,15.18399 20.93233,26.56171 37.66938,31.10014 6.66503,1.80729 21.68488,1.81367 28.45466,0.0121 z M 273.20362,415.28361 C 272.75777,414.61172 237.06426,327.42304 193.88469,221.531 L 115.37639,29 57.884685,28.479501 c -31.62043,-0.286275 -57.6169,-0.623775 -57.76992,-0.75 -0.15302,-0.126226 -0.15302,-6.417001 0,-13.979501 L 0.392985,0 l 64.500003,0 64.500002,0 28.75735,57.25 28.75735,57.25 287.61765,0 287.61765,0 -0.58604,2.75 c -0.32233,1.5125 -25.97431,69.35 -57.0044,150.75 l -56.41835,148 -187.05997,0.25262 c -146.45128,0.19777 -187.23595,-0.0126 -187.87061,-0.96901 z m 359.39065,-27.57783 c 1.0713,-0.68097 84.92999,-236.42395 86.06871,-241.95578 l 0.46316,-2.25 -265.61657,0 c -182.79455,0 -265.61658,0.32347 -265.61658,1.0374 0,1.51087 97.87226,239.0449 99.59397,241.7126 l 1.45214,2.25 171.22694,-0.0153 c 94.17482,-0.008 171.76753,-0.35893 172.42823,-0.77891 z"
     style="fill:#ffffff;fill-opacity:1" />
</svg>
