<?xml version="1.0" encoding="UTF-8" standalone="no"?>
<svg
   xmlns:dc="http://purl.org/dc/elements/1.1/"
   xmlns:cc="http://creativecommons.org/ns#"
   xmlns:rdf="http://www.w3.org/1999/02/22-rdf-syntax-ns#"
   xmlns:svg="http://www.w3.org/2000/svg"
   xmlns="http://www.w3.org/2000/svg"
   viewBox="0 0 251.1866 212.91487"
   height="212.91487"
   width="251.1866"
   version="1.1"
   id="svg2">
  <metadata
     id="metadata8">
    <rdf:RDF>
      <cc:Work
         rdf:about="">
        <dc:format>image/svg+xml</dc:format>
        <dc:type
           rdf:resource="http://purl.org/dc/dcmitype/StillImage" />
        <dc:title></dc:title>
      </cc:Work>
    </rdf:RDF>
  </metadata>
  <defs
     id="defs6" />
  <path
     id="path3338"
     d="m 38.74194,143.38938 -0.2568,-69.525493 -11,7.964123 C 7.11338,96.577387 5.21634,97.914865 4.668,97.914865 c -0.30067,0 -1.47397,-1.30227 -2.60733,-2.893933 L 0,92.127 12.74257,82.715272 C 19.75098,77.538821 45.51014,58.74565 69.98514,40.95267 94.46014,23.159689 117.13135,6.6663919 120.3656,4.300898 L 126.24606,0 132.8656,4.6704513 c 3.64075,2.5687482 18.54454,13.3547807 33.11954,23.9689617 l 26.5,19.298511 0.2681,-23.511529 0.2681,-23.51152986 3.9819,0 3.9819,0 0.0497,26.74999986 0.0498,26.75 12.58531,9 c 23.9758,17.145563 37.81378,27.766467 37.5118,28.790988 -0.16685,0.566096 -1.08678,2.025207 -2.04428,3.242468 l -1.7409,2.213202 -14.95572,-10.867969 C 224.21521,80.81617 216.69764,75.45734 215.73514,74.885041 c -1.65986,-0.986949 -1.75,2.540925 -1.75,68.494649 l 0,69.53518 -87.4932,0 -87.4932,0 -0.2568,-69.52549 z m 46.2432,9.52549 0,-53.000005 40,0 40,0 0,53.000005 0,53 20.5,0 20.5,0 -0.0497,-69.25 -0.0498,-69.250005 -12.58404,-9 c -6.92124,-4.95 -24.71177,-17.8875 -39.53452,-28.75 C 138.94432,18.802365 126.61114,9.9148651 126.36,9.9148651 c -0.25113,0 -6.6827,4.6124999 -14.29237,10.2499999 -7.60967,5.6375 -25.35012,18.575 -39.4232,28.75 l -25.58743,18.5 -0.0359,69.250005 -0.0359,69.25 19,0 19,0 0,-53 z m 72,4 0,-49 -31.5,0 -31.5,0 0,49 0,49 31.5,0 31.5,0 0,-49 z"
     style="fill:#767676" />
</svg>
