<?xml version="1.0" encoding="UTF-8" standalone="no"?>
<svg
   xmlns:dc="http://purl.org/dc/elements/1.1/"
   xmlns:cc="http://creativecommons.org/ns#"
   xmlns:rdf="http://www.w3.org/1999/02/22-rdf-syntax-ns#"
   xmlns:svg="http://www.w3.org/2000/svg"
   xmlns="http://www.w3.org/2000/svg"
   viewBox="0 0 331.53983 330"
   height="330"
   width="331.53983"
   version="1.1"
   id="svg2">
  <metadata
     id="metadata8">
    <rdf:RDF>
      <cc:Work
         rdf:about="">
        <dc:format>image/svg+xml</dc:format>
        <dc:type
           rdf:resource="http://purl.org/dc/dcmitype/StillImage" />
        <dc:title></dc:title>
      </cc:Work>
    </rdf:RDF>
  </metadata>
  <defs
     id="defs6" />
  <path
     id="path3338"
     d="m 164.53983,266 0,-64 9.5,0 9.5,0 0,55 0,55 65,0 65,0 0,-147 0,-147 -65,0 -65,0 0,55 0,55 -9.5,0 -9.5,0 0,-64 0,-64 83.5,0 83.5,0 0,165 0,165 -83.5,0 -83.5,0 0,-64 z M 54.953856,219.93422 0,165.03313 55.019916,110.08795 110.03983,55.14278 l 8.90651,4.51804 8.90651,4.518041 L 81.950416,110.08943 36.047986,156 l 114.745924,0 114.74592,0 0,9 0,9 -114.74592,0 -114.745924,0 45.90296,45.9111 45.902954,45.91109 -8.97309,4.50656 -8.9731,4.50656 -54.953854,-54.90109 z"
     style="fill:#404040" />
</svg>
