<?xml version="1.0" encoding="UTF-8" standalone="no"?>
<svg
   xmlns:dc="http://purl.org/dc/elements/1.1/"
   xmlns:cc="http://creativecommons.org/ns#"
   xmlns:rdf="http://www.w3.org/1999/02/22-rdf-syntax-ns#"
   xmlns:svg="http://www.w3.org/2000/svg"
   xmlns="http://www.w3.org/2000/svg"
   viewBox="0 0 829 793"
   height="793"
   width="829"
   version="1.1"
   id="svg2">
  <metadata
     id="metadata8">
    <rdf:RDF>
      <cc:Work
         rdf:about="">
        <dc:format>image/svg+xml</dc:format>
        <dc:type
           rdf:resource="http://purl.org/dc/dcmitype/StillImage" />
        <dc:title></dc:title>
      </cc:Work>
    </rdf:RDF>
  </metadata>
  <defs
     id="defs6" />
  <path
     id="path3338"
     d="m 242,775.5 0,-17.5 43,0 43,0 0,-68.5 0,-68.5 -164,0 L 0,621 0,310.5 0,0 414.5,0 829,0 l 0,310.5 0,310.5 -164,0 -164,0 0,68.5 0,68.5 43,0 43,0 0,17.5 0,17.5 -172.5,0 -172.5,0 0,-17.5 z m 224,-86 0,-68.5 -51.5,0 -51.5,0 0,68.5 0,68.5 51.5,0 51.5,0 0,-68.5 z m 328,-189 0,-86.5 -379.5,0 -379.5,0 0,86.5 0,86.5 379.5,0 379.5,0 0,-86.5 z M 405.92935,533.69459 C 395.92213,530.8607 388.11958,524.40166 383.34623,515 c -2.43272,-4.79152 -2.79589,-6.65933 -2.81932,-14.5 -0.0215,-7.17651 0.41463,-9.95576 2.15236,-13.71723 3.0555,-6.61389 10.56313,-14.26316 17.19619,-17.5206 4.87686,-2.39499 6.82093,-2.76217 14.62454,-2.76217 7.80361,0 9.74768,0.36718 14.62454,2.76217 6.63306,3.25744 14.14069,10.90671 17.19619,17.5206 1.74172,3.77011 2.17159,6.52425 2.14102,13.71723 -0.0335,7.88215 -0.39768,9.71921 -2.93208,14.79048 -7.17351,14.35398 -24.86619,22.57659 -39.60032,18.40411 z M 794,207.5 794,35 414.5,35 35,35 l 0,172.5 0,172.5 379.5,0 379.5,0 0,-172.5 z"
     style="fill:#ffffff" />
</svg>
