<?xml version="1.0" encoding="UTF-8" standalone="no"?>
<svg
   xmlns:dc="http://purl.org/dc/elements/1.1/"
   xmlns:cc="http://creativecommons.org/ns#"
   xmlns:rdf="http://www.w3.org/1999/02/22-rdf-syntax-ns#"
   xmlns:svg="http://www.w3.org/2000/svg"
   xmlns="http://www.w3.org/2000/svg"
   viewBox="0 0 300 300"
   height="300"
   width="300"
   version="1.1"
   id="svg3336">
  <metadata
     id="metadata3342">
    <rdf:RDF>
      <cc:Work
         rdf:about="">
        <dc:format>image/svg+xml</dc:format>
        <dc:type
           rdf:resource="http://purl.org/dc/dcmitype/StillImage" />
        <dc:title></dc:title>
      </cc:Work>
    </rdf:RDF>
  </metadata>
  <defs
     id="defs3340" />
  <path
     id="path3346"
     d="m 135.70473,243.31743 -0.29528,-40.61836 0,-36.92742 -36.927424,0 -40.618365,0.14764 c -0.397621,-7.71004 -0.446769,-23.26305 -0.454215,-27.12699 16.387795,0 9.42825,-0.0207 41,-0.0207 l 37.000004,0 0,-37 0.008,-41.119533 c 0,0 -1.15821,0.119536 13.49166,0.119536 5.99542,0 13.71851,0.02499 13.71851,0.02499 0,0 -0.21851,14.741447 -0.21851,40.975007 l 0,37 37,0 c 27.38839,0 40.94915,0.007 40.94915,0.007 l 0.0508,13.49319 0.0658,13.26305 c 0,0 -16.32908,0.23695 -41.06582,0.23695 l -37,0 0,37 c 0,40.57766 -0.008,31.40354 -0.0206,40.55709 -6.35674,0.253 -21.68568,-0.0874 -26.68407,-0.0113 z"
     style="fill:#ffffff" />
</svg>
