<?xml version="1.0" encoding="UTF-8" standalone="no"?>
<svg
   xmlns:dc="http://purl.org/dc/elements/1.1/"
   xmlns:cc="http://creativecommons.org/ns#"
   xmlns:rdf="http://www.w3.org/1999/02/22-rdf-syntax-ns#"
   xmlns:svg="http://www.w3.org/2000/svg"
   xmlns="http://www.w3.org/2000/svg"
   viewBox="0 0 437.49713 437.49713"
   height="437.49713"
   width="437.49713"
   version="1.1"
   id="svg2">
  <metadata
     id="metadata8">
    <rdf:RDF>
      <cc:Work
         rdf:about="">
        <dc:format>image/svg+xml</dc:format>
        <dc:type
           rdf:resource="http://purl.org/dc/dcmitype/StillImage" />
        <dc:title></dc:title>
      </cc:Work>
    </rdf:RDF>
  </metadata>
  <defs
     id="defs6" />
  <path
     id="path3338"
     d="m 0,224.49714 0,-213.000012 106.5,0 106.5,0 0,10.994951 0,10.994951 -95.25,0.255049 -95.25,0.255049 -0.25257,190.752582 -0.25257,190.75257 190.75257,-0.25257 190.75257,-0.25257 0.25571,-83.75 0.25571,-83.75 10.99429,0 10.99429,0 0,95 0,95 -213,0 -213,0 0,-213 z m 112,44.74824 0,-56.25176 L 218.50032,106.49681 325.00065,0 l 56.24824,56.248239 56.24824,56.248241 -106.49681,106.50034 -106.4968,106.50032 -56.25176,0 -56.25176,0 0,-56.25176 z M 308.00019,207.99695 403.49644,112.49676 364.24841,73.24872 325.00037,34.000684 229.50019,129.49694 134,224.99321 l 0,38.5853 c 0,21.22191 0.3,38.8853 0.66667,39.25196 0.36666,0.36667 18.03005,0.66667 39.25196,0.66667 l 38.5853,0 95.49626,-95.50019 z"
     style="fill:#999999" />
</svg>
