<?xml version="1.0" encoding="UTF-8" standalone="no"?>
<svg
   xmlns:dc="http://purl.org/dc/elements/1.1/"
   xmlns:cc="http://creativecommons.org/ns#"
   xmlns:rdf="http://www.w3.org/1999/02/22-rdf-syntax-ns#"
   xmlns:svg="http://www.w3.org/2000/svg"
   xmlns="http://www.w3.org/2000/svg"
   height="885"
   width="724"
   version="1.1"
   id="svg2">
  <metadata
     id="metadata10">
    <rdf:RDF>
      <cc:Work
         rdf:about="">
        <dc:format>image/svg+xml</dc:format>
        <dc:type
           rdf:resource="http://purl.org/dc/dcmitype/StillImage" />
        <dc:title></dc:title>
      </cc:Work>
    </rdf:RDF>
  </metadata>
  <defs
     id="defs8" />
  <path
     id="path4"
     style="fill:#ffffff"
     d="M 0,442.5 0,0 180.75103,0 361.50207,0 542.75103,181.25103 724,362.50206 724,623.75103 724,885 362,885 0,885 0,442.5 Z m 684,181 0,-221.5 -181,0 -181,0 0,-181 0,-181 -141,0 -141,0 0,402.5 0,402.5 322,0 322,0 0,-221.5 z M 667,361.74877 C 667,361.61059 598.375,292.87365 514.5,209 L 362,56.502459 362,209.25123 362,362 l 152.5,0 c 83.875,0 152.5,-0.11305 152.5,-0.25123 z" />
</svg>
