<?xml version="1.0" encoding="UTF-8" standalone="no"?>
<svg
   xmlns:dc="http://purl.org/dc/elements/1.1/"
   xmlns:cc="http://creativecommons.org/ns#"
   xmlns:rdf="http://www.w3.org/1999/02/22-rdf-syntax-ns#"
   xmlns:svg="http://www.w3.org/2000/svg"
   xmlns="http://www.w3.org/2000/svg"
   viewBox="0 0 648.0448 633.5"
   height="633.5"
   width="648.0448"
   version="1.1"
   id="svg2">
  <metadata
     id="metadata8">
    <rdf:RDF>
      <cc:Work
         rdf:about="">
        <dc:format>image/svg+xml</dc:format>
        <dc:type
           rdf:resource="http://purl.org/dc/dcmitype/StillImage" />
        <dc:title></dc:title>
      </cc:Work>
    </rdf:RDF>
  </metadata>
  <defs
     id="defs6" />
  <path
     id="path3338"
     d="M 0.067903,539.25 0.135803,445 226.27103,222.5 C 350.6454,100.125 452.70765,0 453.07604,0 c 0.36838,0 44.38706,42.245219 97.81929,93.878263 l 97.1495,93.878267 -28.27241,27.75686 C 604.22259,230.77966 502.4,331.0458 393.5,438.32703 l -198,195.05678 -97.750001,0.0581 L 0,633.50001 l 0.0679,-94.25 z M 188.80821,602.95772 193.5,598.41544 161.34912,566.70772 C 143.66613,549.26847 108.65781,514.78593 83.552844,490.07985 L 37.907465,445.15971 32.453733,450.54569 27,455.93168 l 0,75.78416 0,75.78416 78.55821,0 78.55821,0 4.69179,-4.54228 z M 362.21559,432.07681 C 444.32202,351.26905 511.62316,284.86208 511.77368,284.50576 512.02511,283.91058 358.55386,132.3192 357.12211,131.74854 356.31345,131.42622 57.500004,425.45214 57.500004,426.57017 c 0,1.12685 153.805366,152.8389 154.715586,152.60988 0.39358,-0.099 67.89358,-66.29549 150,-147.10324 z M 570.88886,226.6963 610.27773,187.96863 538.87909,118.98431 C 499.60984,81.042942 464.23506,46.90094 460.26847,43.113199 l -7.21199,-6.8868 -38.27824,37.796446 C 393.72521,94.81089 376.5,112.20005 376.5,112.66541 c 0,0.86001 153.58354,152.6875 154.5,152.73348 0.275,0.0138 18.22499,-17.40237 39.88886,-38.70259 z"
     style="fill:#ffffff" />
</svg>
