<?xml version="1.0" encoding="UTF-8" standalone="no"?>
<svg
   xmlns:dc="http://purl.org/dc/elements/1.1/"
   xmlns:cc="http://creativecommons.org/ns#"
   xmlns:rdf="http://www.w3.org/1999/02/22-rdf-syntax-ns#"
   xmlns:svg="http://www.w3.org/2000/svg"
   xmlns="http://www.w3.org/2000/svg"
   viewBox="0 0 513 385"
   height="385"
   width="513"
   version="1.1"
   id="svg2">
  <metadata
     id="metadata8">
    <rdf:RDF>
      <cc:Work
         rdf:about="">
        <dc:format>image/svg+xml</dc:format>
        <dc:type
           rdf:resource="http://purl.org/dc/dcmitype/StillImage" />
        <dc:title></dc:title>
      </cc:Work>
    </rdf:RDF>
  </metadata>
  <defs
     id="defs6" />
  <path
     id="path3338"
     d="M 0,192.5 0,0 256.5,0 513,0 513,192.5 513,385 256.5,385 0,385 0,192.5 Z m 489.82332,169.04961 c -0.23608,-1.05903 -167.15299,-150.51458 -179.22717,-160.47802 -1.57503,-1.29969 -5.75804,2.59786 -46.41771,43.25 C 239.60077,268.89472 218.98715,289 218.37041,289 c -0.61674,0 -16.06763,-7.92063 -34.33532,-17.6014 l -33.21398,-17.6014 -2.66055,2.44905 c -1.46331,1.34697 -26.06056,23.95472 -54.660561,50.23944 -28.6,26.28471 -54.01908,49.75327 -56.48684,52.15235 L 32.526319,363 261.33648,363 c 199.39049,0 228.7686,-0.18649 228.48684,-1.45039 z M 85.044139,283.5 c 33.662471,-31.075 61.711051,-56.49086 62.330181,-56.47969 0.61912,0.0112 15.97568,7.879 34.12568,17.48407 l 33,17.46378 46.68247,-46.66257 c 42.87529,-42.85701 46.82911,-46.54607 48.4805,-45.23408 2.26509,1.79956 172.67836,153.15031 177.08703,157.27797 L 490,330.39233 490,176.19617 490,22 256.5,22 22.999999,22 l 0,159 c 0,87.45 0.18892,159 0.41982,159 0.2309,0 27.96184,-25.425 61.62432,-56.5 z M 108.42926,148.10719 c -5.34265,-2.42658 -10.020721,-8.23572 -11.458461,-14.22892 -3.1771,-13.24363 5.669471,-25.7183 18.918051,-26.67661 3.24456,-0.23469 7.53333,0.1126 9.53058,0.77175 13.79244,4.55192 18.79382,23.03316 9.33772,34.50504 -4.0458,4.90826 -9.80367,7.47763 -16.75715,7.47763 -3.21568,0 -7.19071,-0.76791 -9.57074,-1.84889 z"
     style="fill:#b3b3b3" />
</svg>
