<?xml version="1.0" encoding="UTF-8" standalone="no"?>
<svg
   xmlns:dc="http://purl.org/dc/elements/1.1/"
   xmlns:cc="http://creativecommons.org/ns#"
   xmlns:rdf="http://www.w3.org/1999/02/22-rdf-syntax-ns#"
   xmlns:svg="http://www.w3.org/2000/svg"
   xmlns="http://www.w3.org/2000/svg"
   viewBox="0 0 277.2749 282.85538"
   height="282.85538"
   width="277.2749"
   version="1.1"
   id="svg2">
  <metadata
     id="metadata8">
    <rdf:RDF>
      <cc:Work
         rdf:about="">
        <dc:format>image/svg+xml</dc:format>
        <dc:type
           rdf:resource="http://purl.org/dc/dcmitype/StillImage" />
        <dc:title></dc:title>
      </cc:Work>
    </rdf:RDF>
  </metadata>
  <defs
     id="defs6" />
  <path
     id="path3338"
     d="M 119.63744,281.41539 C 79.836264,274.44463 45.482872,249.91083 25.933702,214.49598 l -2.760024,-5 -0.01812,33.25 -0.01811,33.25 -7.5,0 -7.5,0 0,-48.5 0,-48.5 48.499996,0 48.499996,0 0,7.5 0,7.5 -36.999996,0 c -24.683905,0 -36.999996,0.34236 -36.999996,1.02852 0,1.86301 6.190191,13.33984 11.202111,20.76911 17.456845,25.87662 47.572555,45.14197 79.183251,50.65442 12.399,2.1622 31.21381,2.00352 43.32917,-0.36543 31.63381,-6.18545 59.07115,-24.40406 76.75339,-50.96486 12.12736,-18.21671 17.92742,-35.22489 20.07624,-58.87176 l 0.65881,-7.25 7.46724,0 7.46723,0 -0.66118,8.25 c -3.62521,45.23413 -27.07184,83.74331 -64.97627,106.71822 -14.21686,8.61722 -31.1484,14.83102 -47.74752,17.52313 -11.42868,1.85355 -33.46297,1.81773 -44.25248,-0.0719 z M 0.66118,125.74598 C 4.286383,80.51186 27.733019,42.002673 65.637444,19.027771 86.588894,6.3285319 109.69889,0.00816642 135.21122,7.1165808e-6 184.09105,-0.01562549 227.7309,25.724109 251.34118,68.495986 l 2.76003,5 0.0181,-33.25 0.0181,-33.2500002 7.5,0 7.5,0 0,48.5000002 0,48.499994 -48.5,0 -48.5,0 0,-7.499994 0,-7.5 37,0 c 24.68391,0 37,-0.34236 37,-1.028517 0,-1.83988 -6.16457,-13.302167 -11.00983,-20.471483 C 224.67876,52.035292 208.65032,37.838333 191.34185,28.713383 145.65747,4.6287779 88.166414,12.68037 51.977349,48.231306 29.869666,69.949161 18.531018,94.417294 15.593279,126.74598 l -0.658815,7.25 -7.467232,0 -7.467232,0 0.66118,-8.25 z"
     style="fill:#999999" />
</svg>
