<?xml version="1.0" encoding="UTF-8" standalone="no"?>
<svg
   xmlns:dc="http://purl.org/dc/elements/1.1/"
   xmlns:cc="http://creativecommons.org/ns#"
   xmlns:rdf="http://www.w3.org/1999/02/22-rdf-syntax-ns#"
   xmlns:svg="http://www.w3.org/2000/svg"
   xmlns="http://www.w3.org/2000/svg"
   viewBox="0 0 1754.1206 2629.4424"
   height="2629.4424"
   width="1754.1206"
   version="1.1"
   id="svg3336">
  <metadata
     id="metadata3342">
    <rdf:RDF>
      <cc:Work
         rdf:about="">
        <dc:format>image/svg+xml</dc:format>
        <dc:type
           rdf:resource="http://purl.org/dc/dcmitype/StillImage" />
        <dc:title></dc:title>
      </cc:Work>
    </rdf:RDF>
  </metadata>
  <defs
     id="defs3340" />
  <path
     id="path3348-7"
     d="m 132.082,2236.3758 0,-473.0669 -66.041,0 -66.041,0 0,-54.9778 0,-134.9777 66.041,0 66.041,0 0,-81.5799 0,-161.58 -66.041,0 -66.041,0 0,-55.4721 0,-135.4721 66.041,0 66.041,0 0,-609.62467 L 132.082,0 665.4712,0.005 c 347.0655,0.003 454.0361,1.22786 467.5376,1.01071 151.5302,-2.43713 307.0732,56.70791 437.0504,206.54507 129.9772,149.83716 172.265,225.13417 182.8954,404.63214 1.5547,19.88857 1.5547,85.91813 0,105.80671 -16.3518,244.21767 -116.0084,414.42907 -341.415,544.63447 -110.7953,60.6197 -393.2907,67.0901 -600.9711,67.2602 l -492.3227,0.3428 0,161.5579 0,81.5579 579.815,0 501.8149,0 0,134.9777 0,54.9778 -501.8149,0 -581.815,0 0,473.0669 0,393.067 -52.0819,0 -132.0819,0 z M 1157.4041,1137.492 c 80.3365,-10.5415 141.7225,-32.5032 202.9434,-72.606 45.7132,-29.9443 88.5001,-70.7639 121.8099,-116.2088 83.188,-113.49446 111.8706,-262.17425 77.3636,-401.0232 -39.6301,-159.46323 -158.2346,-287.37967 -311.5027,-335.95945 -32.221,-10.21277 -67.2868,-16.95526 -102.6171,-19.73137 -8.6117,-0.67667 -149.5565,-1.0189 -419.6253,-1.0189 l -406.6582,0 0,474.16698 0,474.16694 414.8048,-0.3238 c 305.5765,-0.2386 417.0895,-0.6237 423.4816,-1.4624 z"
     style="fill:#ffffff;fill-opacity:1" />
</svg>
