<?xml version="1.0" encoding="UTF-8" standalone="no"?>
<svg
   xmlns:dc="http://purl.org/dc/elements/1.1/"
   xmlns:cc="http://creativecommons.org/ns#"
   xmlns:rdf="http://www.w3.org/1999/02/22-rdf-syntax-ns#"
   xmlns:svg="http://www.w3.org/2000/svg"
   xmlns="http://www.w3.org/2000/svg"
   version="1.1"
   id="svg2"
   viewBox="0 0 1027.5705 911.73839"
   height="257.31284mm"
   width="290.00323mm">
  <defs
     id="defs4" />
  <metadata
     id="metadata7">
    <rdf:RDF>
      <cc:Work
         rdf:about="">
        <dc:format>image/svg+xml</dc:format>
        <dc:type
           rdf:resource="http://purl.org/dc/dcmitype/StillImage" />
        <dc:title></dc:title>
      </cc:Work>
    </rdf:RDF>
  </metadata>
  <g
     transform="translate(114.47886,-39.287732)"
     id="layer1">
    <g
       style="fill:#777777;fill-opacity:1"
       transform="translate(-159.6041,26.263966)"
       id="g3347">
      <path
         id="path3349"
         d="m 219.86364,915.51214 c 1.85153,-5.0875 31.76981,-86.37479 66.48506,-180.63842 34.71525,-94.26363 62.99342,-171.47183 62.84039,-171.57377 -0.15304,-0.10194 -68.63001,-47.17715 -152.17105,-104.61158 L 45.125242,354.26214 l 190.379008,-0.5 190.37902,-0.5 66.51378,-171.18593 C 543.70913,50.014759 559.09104,11.38986 559.69931,13.076198 c 0.43366,1.202262 30.36411,78.235936 66.51211,171.185942 l 65.72363,169 190.38034,0.5 190.38041,0.5 -151.89252,104.42448 c -83.54084,57.43346 -152.0183,104.50932 -152.17212,104.61301 -0.15383,0.1037 29.61229,81.36269 66.14693,180.57553 36.53464,99.21284 66.27586,180.54662 66.0916,180.74173 -0.18426,0.19511 -76.75038,-46.37611 -170.14693,-103.4916 -93.39656,-57.1155 -170.71192,-103.84724 -171.81192,-103.84831 -1.1,-10e-4 -78.33704,46.68265 -171.63787,103.74161 -93.30083,57.05895 -169.8939,103.74355 -170.20682,103.74355 -0.31292,0 0.94595,-4.1625 2.79749,-9.25 z m 207.0472,-170.74033 c 71.5,-45.98655 130.46928,-83.89534 131.04284,-84.24177 0.57357,-0.34643 61.09735,38.00279 134.4973,85.22049 73.39994,47.21769 133.61504,85.68976 133.81132,85.49349 0.25549,-0.2555 -91.04667,-275.53598 -94.58355,-285.17402 -0.25442,-0.69329 47.61527,-33.22806 114.39661,-77.75 l 114.83411,-76.55786 -143.49933,-0.0145 -143.4993,-0.0145 -57.38537,-143.57548 c -31.56195,-78.96651 -57.68164,-143.09611 -58.04374,-142.51021 -0.36211,0.5859 -26.28869,65.19508 -57.61463,143.57595 l -56.95626,142.51066 -143.4993,0.014 -143.4993,0.014 114.7493,76.50133 c 63.11211,42.07574 114.7493,76.61501 114.7493,76.75395 0,0.13894 -21.375,64.37406 -47.5,142.74472 -26.125,78.37066 -47.5,142.88314 -47.5,143.36106 0,0.47793 1.2375,0.0571 2.75,-0.93527 1.5125,-0.99232 61.25,-39.42958 132.75,-85.41612 z"
         style="fill:#777777;fill-opacity:1" />
    </g>
  </g>
</svg>
