<?xml version="1.0" encoding="UTF-8" standalone="no"?>
<svg
   xmlns:dc="http://purl.org/dc/elements/1.1/"
   xmlns:cc="http://creativecommons.org/ns#"
   xmlns:rdf="http://www.w3.org/1999/02/22-rdf-syntax-ns#"
   xmlns:svg="http://www.w3.org/2000/svg"
   xmlns="http://www.w3.org/2000/svg"
   viewBox="0 0 361.76331 304"
   height="304"
   width="361.76331"
   version="1.1"
   id="svg2">
  <metadata
     id="metadata8">
    <rdf:RDF>
      <cc:Work
         rdf:about="">
        <dc:format>image/svg+xml</dc:format>
        <dc:type
           rdf:resource="http://purl.org/dc/dcmitype/StillImage" />
        <dc:title></dc:title>
      </cc:Work>
    </rdf:RDF>
  </metadata>
  <defs
     id="defs6" />
  <path
     id="path3338"
     d="m 49.8249,224.65913 0,-79.34087 -5.54972,-1.24197 C 35.141389,142.03223 23.97828,135.81862 17.293885,129.05794 10.50148,122.18802 4.5128277,112.87421 2.1591077,105.51968 0.07331673,99.002332 -0.72085427,80.945875 0.76375273,73.794564 3.5964677,60.149447 13.170055,46.258031 25.360187,38.104774 32.310675,33.456004 43.35678,29 47.93024,29 49.70268,29 49.8249,28.064621 49.8249,14.5 l 0,-14.5 8,0 8,0 0,14.293565 0,14.293565 5.49359,1.152292 C 86.989876,33.02653 102.43043,45.354846 109.84447,60.5 c 4.15363,8.484898 5.98043,16.579667 5.98043,26.5 0,16.78784 -5.1743,29.32746 -17.006144,41.21344 -8.31991,8.35797 -17.486116,13.63434 -27.629196,15.90426 l -5.36466,1.20056 0,79.34087 0,79.34087 -8,0 -8,0 0,-79.34087 z m 17.30671,-96.1508 C 84.624106,123.95211 96.728886,111.10609 99.937206,93.693852 105.04035,65.998139 79.13135,39.944136 51.23798,44.722067 34.785409,47.540272 21.715359,59.039114 16.719464,75.090956 9.6092207,97.936212 24.264382,122.75363 48.3249,128.6124 c 6.88746,1.67711 12.0786,1.64838 18.80671,-0.10407 z m 105.69329,157.6508 0,-17.84087 -5.54972,-1.24197 c -19.80803,-4.43285 -37.58097,-21.85289 -42.97494,-42.12163 -1.90742,-7.16746 -1.87982,-22.98155 0.053,-30.40236 5.21581,-20.02483 23.2766,-37.74851 42.51591,-41.72232 l 5.95575,-1.23013 0,-75.799926 0,-75.799924 8,0 8,0 0,75.799924 0,75.799926 5.75,1.20338 c 19.69508,4.12185 37.38468,21.49131 42.67338,41.90109 2.00026,7.71924 2.02679,22.11219 0.055,29.83558 -5.21814,20.43917 -23.03734,38.0849 -42.9621,42.54387 l -5.51628,1.23449 0,17.84087 0,17.84087 -8,0 -8,0 0,-17.84087 z m 15.10918,-34.17984 c 14.1,-2.674 25.3513,-11.45464 31.69162,-24.73247 3.4866,-7.30159 3.69562,-8.29281 3.6369,-17.24682 -0.0479,-7.30634 -0.56582,-10.77001 -2.24288,-15 -4.36853,-11.01862 -14.12246,-20.78152 -25.19482,-25.21798 -4.32025,-1.73104 -7.53775,-2.20374 -15,-2.20374 -11.0443,0 -17.37915,2.03614 -25.4761,8.18849 -25.69676,19.52531 -21.97712,58.83118 6.84368,72.31806 9.78675,4.57977 16.65156,5.61835 25.7416,3.89446 z m 107.89082,1.59161 0,-50.4291 -5.51258,-1.14441 c -19.61885,-4.07286 -37.59384,-21.9355 -42.90993,-42.64173 -1.83845,-7.16081 -2.05473,-19.9845 -0.46474,-27.55644 1.61719,-7.7015 6.8824,-18.46098 12.21968,-24.97102 C 266.93246,97.344642 285.07397,87 293.93024,87 c 1.83051,0 1.89466,-1.472804 1.89466,-43.5 l 0,-43.5 8,0 8,0 0,43.5 0,43.5 2.45451,0 c 3.35187,0 14.22922,4.043244 20.16506,7.495602 11.29435,6.568928 22.32966,21.533378 25.85204,35.056698 1.93287,7.42081 1.96047,23.2349 0.053,30.40236 -5.35488,20.12186 -23.67404,38.02817 -43.01208,42.04273 l -5.51253,1.14441 0,50.4291 0,50.4291 -8,0 -8,0 0,-50.4291 z m 15.10918,-66.59161 c 24.84021,-4.71084 41.13531,-29.92689 34.28051,-53.04779 -2.33523,-7.8766 -4.97094,-12.5695 -10.19807,-18.15773 -14.2336,-15.21686 -36.67049,-18.017048 -54.20533,-6.76498 -14.15387,9.08252 -22.09756,26.53664 -19.19084,42.16673 3.24114,17.42839 15.36517,30.60866 32.20455,35.0102 7.75997,2.02832 10.04059,2.13411 17.10918,0.79357 z"
     style="fill:#ffffff" />
</svg>
