<?xml version="1.0" encoding="UTF-8" standalone="no"?>
<svg
   xmlns:dc="http://purl.org/dc/elements/1.1/"
   xmlns:cc="http://creativecommons.org/ns#"
   xmlns:rdf="http://www.w3.org/1999/02/22-rdf-syntax-ns#"
   xmlns:svg="http://www.w3.org/2000/svg"
   xmlns="http://www.w3.org/2000/svg"
   viewBox="0 0 368.79114 368.9581"
   height="368.9581"
   width="368.79114"
   version="1.1"
   id="svg2">
  <metadata
     id="metadata8">
    <rdf:RDF>
      <cc:Work
         rdf:about="">
        <dc:format>image/svg+xml</dc:format>
        <dc:type
           rdf:resource="http://purl.org/dc/dcmitype/StillImage" />
        <dc:title></dc:title>
      </cc:Work>
    </rdf:RDF>
  </metadata>
  <defs
     id="defs6" />
  <path
     id="path3338"
     d="M 98.77688,273.70809 0.05376,178.5 0.02688,89.25 0,0 l 89.25,0.0343 89.25,0.0343 95,102.09197 c 52.25,56.15058 95.1308,102.63383 95.29066,103.29611 0.32507,1.34666 -168.5782,163.56736 -170.23673,163.50141 -0.57966,-0.023 -45.47933,-42.88554 -99.77704,-95.25 z m 181.4779,-4.57874 66.52732,-63.37065 -88.14105,-95.31371 -88.14106,-95.313713 -77.75,-0.06564 -77.75,-0.06564 0.0621,77.750003 0.0621,77.75 91.68792,88.08422 91.68793,88.08422 7.61373,-7.08422 c 4.18756,-3.89632 37.55103,-35.60101 74.14106,-70.45487 z M 104.06739,162.86504 C 91.86664,160.8412 78.03917,151.42398 70.99347,140.33998 61.3157,125.11531 61.27448,101.94875 70.89827,86.8102 80.38812,71.882278 95.2799,63.835784 113.50003,63.79113 c 19.9432,-0.04888 36.61415,10.207038 45.02863,27.70146 12.02978,25.01094 1.8972,54.90201 -22.67063,66.87826 -10.42584,5.08235 -20.04608,6.44235 -31.7906,4.49419 z m 22.89041,-17.51336 c 7.16719,-3.19279 11.3509,-6.47124 14.84346,-11.63166 4.58736,-6.77806 6.33442,-12.37819 6.36591,-20.4056 0.0504,-12.84405 -7.35018,-24.6913 -19.38303,-31.0295 -4.75883,-2.50667 -6.27829,-2.78338 -15.28415,-2.78338 -9.00586,0 -10.52532,0.27671 -15.28415,2.78338 -6.72394,3.54178 -12.38915,9.20698 -15.93093,15.93093 -2.50667,4.75883 -2.78338,6.27829 -2.78338,15.28415 0,9.00586 0.27671,10.52532 2.78338,15.28415 8.8892,16.87582 28.03863,23.97764 44.67289,16.56753 z"
     style="fill:#fefefe" />
</svg>
