<?xml version="1.0" encoding="UTF-8" standalone="no"?>
<svg
   xmlns:dc="http://purl.org/dc/elements/1.1/"
   xmlns:cc="http://creativecommons.org/ns#"
   xmlns:rdf="http://www.w3.org/1999/02/22-rdf-syntax-ns#"
   xmlns:svg="http://www.w3.org/2000/svg"
   xmlns="http://www.w3.org/2000/svg"
   height="182.04828mm"
   width="182.01479mm"
   version="1.1"
   id="svg2">
  <metadata
     id="metadata10">
    <rdf:RDF>
      <cc:Work
         rdf:about="">
        <dc:format>image/svg+xml</dc:format>
        <dc:type
           rdf:resource="http://purl.org/dc/dcmitype/StillImage" />
        <dc:title></dc:title>
      </cc:Work>
    </rdf:RDF>
  </metadata>
  <defs
     id="defs8" />
  <path
     id="path4"
     style="fill:#ffffff"
     d="M 295.46715,644.4294 C 220.04504,637.2808 152.5179,606.8374 99.846536,556.2375 45.093681,503.6379 11.879978,437.8239 1.8061208,361.9671 c -2.40816106,-18.1336 -2.40816106,-60.8664 0,-79 C 9.3768374,225.9592 30.581386,173.388 63.894101,129.036 116.88899,58.479397 194.16747,13.598817 282.96715,1.8061275 c 18.1336,-2.40817 60.8664,-2.40817 79,0 70.43951,9.3544395 133.61332,39.3303895 183.12061,86.8906705 54.75285,52.599602 87.96655,118.413602 98.04041,194.270302 2.40816,18.1336 2.40816,60.8664 0,79 -7.57071,57.008 -28.77526,109.5792 -62.08798,153.9312 -52.8615,70.379 -131.08256,115.867 -218.57304,127.107 -14.71363,1.8903 -53.4049,2.7127 -67,1.4241 z m 68.5,-28.8231 c 41.25267,-6.3409 75.17985,-18.3113 109.29711,-38.563 5.89274,-3.4979 11.74192,-7.1959 12.99819,-8.218 l 2.28412,-1.8582 -14.05922,-69 c -7.73257,-37.95 -14.77636,-71.25 -15.65286,-74 -4.00215,-12.5565 -15.45027,-27.3779 -27.14028,-35.1373 -7.3307,-4.8659 -17.91641,-8.8903 -27.0562,-10.2861 -7.26184,-1.109 -7.36286,-1.0934 -11,1.6903 -19.58115,14.9864 -46.72332,24.2251 -71.17086,24.2251 -22.73645,0 -47.60815,-7.9101 -67.33311,-21.4143 -4.59747,-3.1476 -7.71107,-4.5777 -9.96651,-4.5777 -5.50234,0 -14.76168,2.8051 -23.68798,7.1762 -14.28514,6.9951 -27.09581,21.5407 -32.58213,36.9946 -1.49618,4.2144 -30.71766,145.8884 -30.19339,146.3861 0.14472,0.1374 3.90331,2.5033 8.35243,5.2577 40.14925,24.8555 82.10202,38.5128 133.91069,43.5934 10.92678,1.0716 50.55237,-0.3555 63,-2.2688 z M 139.26196,528.4671 c 15.71304,-78.7821 22.66507,-111.1872 25.35995,-118.2085 8.42939,-21.9622 29.28071,-42.9961 51.73427,-52.1873 l 7.95882,-3.2579 -6.02994,-8.4231 c -11.37895,-15.8951 -23.23957,-43.4375 -27.31196,-63.4232 -3.65899,-17.9567 -3.69641,-38.2693 -0.10158,-55.1385 8.28965,-38.9002 36.04071,-74.5524 72.20863,-92.7675 19.91504,-10.0297 36.49736,-13.9152 59.387,-13.9152 18.05725,0 25.59486,1.1719 41.5,6.4518 44.65133,14.8227 80.36088,54.5494 90.09563,100.2309 3.59483,16.8692 3.55741,37.1818 -0.10158,55.1385 -4.02295,19.743 -15.94999,47.5836 -26.94311,62.8919 -3.117,4.3405 -5.3036,8.2236 -4.85911,8.6292 0.4445,0.4055 2.60817,1.2904 4.80817,1.9664 6.3736,1.9584 18.37931,8.6895 26.36458,14.7815 7.99498,6.0993 16.70167,15.8381 21.96594,24.5698 8.31358,13.7894 9.34211,17.5898 23.43687,86.6 7.35092,35.9914 13.8635,65.6049 14.4724,65.8078 1.63584,0.5453 30.67412,-28.746 39.40326,-39.7466 35.14672,-44.2923 55.05644,-90.5574 63.5063,-147.5724 2.50015,-16.8696 2.49815,-59.9791 -0.004,-76.9276 -2.55878,-17.335 -6.22519,-33.9839 -10.65796,-48.3969 C 576.76501,142.2855 502.64876,68.169298 409.36414,39.479328 c -14.41305,-4.43277 -31.06194,-8.09918 -48.39699,-10.65796 -16.95936,-2.50332 -60.04064,-2.50332 -77,0 -41.46573,6.12063 -77.01864,18.3098 -110.17079,37.77163 C 109.16336,104.5354 61.235301,164.8312 39.479324,235.5702 c -4.444256,14.4503 -8.112934,31.1252 -10.647933,48.3969 -2.231526,15.2041 -2.546064,59.0845 -0.526855,73.5 9.355781,66.7931 35.306935,121.7012 79.969504,169.2015 9.35784,9.9525 25.35433,24.0567 26.19681,23.0979 0.38632,-0.4396 2.54232,-10.0244 4.79111,-21.2994 z M 342.96715,373.4849 c 34.96094,-9.0168 68.7506,-43.5333 81.26975,-83.0178 4.32642,-13.6451 5.69582,-22.7943 5.53798,-37 -0.44343,-39.9078 -24.40744,-76.8255 -61.6892,-95.0351 -5.59102,-2.7308 -14.65493,-6.1598 -20.14201,-7.6199 -8.75509,-2.3297 -11.87419,-2.6548 -25.47652,-2.6548 -13.60233,0 -16.72143,0.3251 -25.47652,2.6548 -26.27055,6.9906 -49.45363,23.7863 -64.53541,46.7546 -11.32491,17.2469 -17.07272,35.8239 -17.2958,55.9004 -0.15785,14.2065 1.21171,23.356 5.53844,37 6.12341,19.3099 16.63382,36.7802 31.164,51.8006 27.66363,28.5969 59.27191,39.4275 91.10529,31.2172 z" />
</svg>
