<?xml version="1.0" encoding="UTF-8" standalone="no"?>
<svg
   xmlns:dc="http://purl.org/dc/elements/1.1/"
   xmlns:cc="http://creativecommons.org/ns#"
   xmlns:rdf="http://www.w3.org/1999/02/22-rdf-syntax-ns#"
   xmlns:svg="http://www.w3.org/2000/svg"
   xmlns="http://www.w3.org/2000/svg"
   viewBox="0 0 448.85773 357.02957"
   height="357.02957"
   width="448.85773"
   version="1.1"
   id="svg3336">
  <metadata
     id="metadata3342">
    <rdf:RDF>
      <cc:Work
         rdf:about="">
        <dc:format>image/svg+xml</dc:format>
        <dc:type
           rdf:resource="http://purl.org/dc/dcmitype/StillImage" />
        <dc:title></dc:title>
      </cc:Work>
    </rdf:RDF>
  </metadata>
  <defs
     id="defs3340" />
  <path
     id="path3346"
     d="m 74.426603,355.40622 c -4.50892,-2.35102 -6.59406,-4.50947 -8.6215,-8.9246 -1.72539,-3.75737 -1.83814,-8.192 -1.85877,-73.11046 l -0.022,-69.11046 80.166177,-66.07984 c 68.51127,-56.472864 80.40573,-65.90679 81.81386,-64.889536 0.90622,0.654668 37.05644,30.394256 80.33382,66.087986 l 78.68614,64.89769 -0.022,69.10231 c -0.0247,77.7117 0.30208,74.23534 -7.54065,80.2184 l -3.78026,2.88391 -56.82855,0.27397 -56.82854,0.27397 0,-53.52397 0,-53.52397 -35.5,0 -35.5,0 0,53.5 0,53.5 -55.75,-0.006 c -48.602187,-0.005 -56.134347,-0.20657 -58.747767,-1.56924 z M 21.626723,208.87485 C 20.638013,208.29958 15.350513,202.44986 9.8767229,195.87548 -0.2845973,183.67106 -1.2629273,181.56118 1.0216727,176.77867 1.6251927,175.51529 48.005253,136.28167 104.08848,89.592845 215.4803,-3.1399445 211.20426,0.05109549 224.13686,0.00536549 c 12.5144,-0.04425 14.20473,1.02375901 53.14678,33.57998151 19.3274,16.158037 35.47823,29.382307 35.89073,29.387266 0.4125,0.005 0.75,-12.836438 0.75,-28.536438 l 0,-28.5454545 2.45455,-2.454545 2.45454,-2.45454601 29.96367,0 c 16.48001,0 30.69211,0.27953201 31.58244,0.62118201 4.44833,1.706986 4.54313,3.034792 4.57463,64.0791585 l 0.0298,57.79965 30.88565,25.5 c 16.98711,14.025 31.37369,26.53367 31.97018,27.79705 2.28908,4.84836 1.31204,6.91903 -9.16548,19.42472 -10.30116,12.29519 -13.35476,14.5973 -17.85957,13.46435 -1.31474,-0.33065 -45.8833,-36.8453 -99.04125,-81.14365 -53.15796,-44.298351 -96.96661,-80.54246 -97.35257,-80.54246 -0.38596,0 -43.51809,35.676577 -95.84918,79.28127 -52.331087,43.60471 -96.260057,80.05471 -97.619937,81 -2.77373,1.92811 -6.62834,2.18106 -9.32514,0.61195 z"
     style="fill:#000000" />
</svg>
