<?xml version="1.0" encoding="UTF-8" standalone="no"?>
<svg
   xmlns:dc="http://purl.org/dc/elements/1.1/"
   xmlns:cc="http://creativecommons.org/ns#"
   xmlns:rdf="http://www.w3.org/1999/02/22-rdf-syntax-ns#"
   xmlns:svg="http://www.w3.org/2000/svg"
   xmlns="http://www.w3.org/2000/svg"
   viewBox="0 0 353.56186 295.10953"
   height="295.10953"
   width="353.56186"
   version="1.1"
   id="svg3360">
  <metadata
     id="metadata3366">
    <rdf:RDF>
      <cc:Work
         rdf:about="">
        <dc:format>image/svg+xml</dc:format>
        <dc:type
           rdf:resource="http://purl.org/dc/dcmitype/StillImage" />
        <dc:title></dc:title>
      </cc:Work>
    </rdf:RDF>
  </metadata>
  <defs
     id="defs3364" />
  <path
     id="path3370"
     d="m 104.1864,294.86609 c -6.396028,-1.58755 -9.296488,-3.05731 -13.317388,-6.74838 -15.73177,-14.44132 -10.69097,-37.95053 9.699668,-45.23713 l 3.61772,-1.29279 -5.848868,-0.0439 c -7.23999,-0.0543 -11.97116,-2.20761 -14.75794,-6.71671 -3.27818,-5.30423 -2.20452,-10.6805 4.85826,-24.32719 l 5.95176,-11.5 -18.69419,-86 -18.69419,-85.999987 -24.087151,-0.5 C 5.867676,25.938573 5.107925,25.737503 1.333269,18.141983 -1.12385,13.197663 -0.18841796,8.425223 4.170003,3.669363 L 7.532723,0 40.5439,0 l 33.011172,0 3.03894,2.911483 c 3.05954,2.93123 5.44029,8.69348 6.64718,16.08852 0.99914,6.12209 31.396918,136.785027 31.950918,137.339027 0.478,0.478 207.37377,-19.42451 212.74429,-20.46511 l 2.75,-0.53284 0,-49.952657 c 0,-58.79287 0.007,-58.83963 9,-58.86937 4.17768,-0.0138 9.20616,2.84019 11.69567,6.63809 1.67284,2.55201 1.82653,6.6912 2.10892,56.79773 0.16752,29.724817 0.0278,55.955477 -0.31056,58.290367 -0.68499,4.7272 -4.47285,9.916 -8.30135,11.37159 -1.36656,0.51957 -51.13146,6.55016 -110.58867,13.40132 -59.4572,6.85116 -109.61339,12.71651 -111.45819,13.0341 -3.03054,0.52174 -3.29722,0.83654 -2.76392,3.2626 1.88526,8.57627 1.7959,14.729 -0.28348,19.51805 -1.15413,2.65809 -2.09842,5.02059 -2.09842,5.25 0,0.2294 44.36949,0.41709 98.59887,0.41709 90.03194,0 98.90464,0.1451 102.11806,1.66996 9.67527,4.59122 9.67527,19.06887 0,23.66009 -1.93555,0.91848 -5.92618,1.70167 -8.86806,1.74042 l -5.34887,0.0705 3.89394,1.42703 c 10.46911,3.8366 17.60606,14.09757 17.60606,25.31263 0,24.6191 -30.67741,35.92548 -47.03979,17.33684 -6.90304,-7.84227 -8.75267,-19.777 -4.40351,-28.4137 3.32137,-6.59568 10.57658,-12.78263 17.43683,-14.86942 1.37856,-0.41934 -38.21853,-0.76243 -87.99353,-0.76243 -49.775,0 -89.37209,0.34309 -87.99353,0.76243 7.95764,2.4206 14.13754,7.95424 17.78794,15.92778 4.53849,9.91336 1.80122,21.75328 -6.83243,29.55326 -2.30057,2.07843 -5.63263,4.38471 -7.40458,5.12508 -3.68645,1.5403 -12.09807,2.56017 -15.0574,1.82563 z"
     style="fill:#ffffff" />
</svg>
