<?xml version="1.0" encoding="UTF-8" standalone="no"?>
<svg
   xmlns:dc="http://purl.org/dc/elements/1.1/"
   xmlns:cc="http://creativecommons.org/ns#"
   xmlns:rdf="http://www.w3.org/1999/02/22-rdf-syntax-ns#"
   xmlns:svg="http://www.w3.org/2000/svg"
   xmlns="http://www.w3.org/2000/svg"
   viewBox="0 0 242.5 243.00453"
   height="243.00453"
   width="242.5"
   version="1.1"
   id="svg3428">
  <metadata
     id="metadata3434">
    <rdf:RDF>
      <cc:Work
         rdf:about="">
        <dc:format>image/svg+xml</dc:format>
        <dc:type
           rdf:resource="http://purl.org/dc/dcmitype/StillImage" />
        <dc:title></dc:title>
      </cc:Work>
    </rdf:RDF>
  </metadata>
  <defs
     id="defs3432" />
  <path
     id="path3438"
     d="m 8.0199403,241.25299 c -1.91404,-0.96165 -4.50154,-3.2775 -5.75,-5.14633 L 0,232.70877 0,121.50454 0,10.300306 2.2699403,6.9024229 C 7.2013903,-0.47951437 -1.20882,0.00782793 121.28212,0.00609393 240.27265,0.00439393 234.73505,-0.24981207 240,5.4562249 l 2.5,2.709443 0,113.3388721 0,113.33887 -2.5,2.70944 c -4.84101,5.24658 -6.36353,5.45169 -40.46788,5.45169 l -31.53212,0 0,-46.97461 0,-46.9746 15.71789,-0.2754 15.71788,-0.27539 2.22474,-17 c 1.2236,-9.35 2.25055,-17.5625 2.28211,-18.25 0.0439,-0.95583 -4.17868,-1.25 -17.94262,-1.25 l -18,0 0.002,-14.750001 c 0.002,-16.263573 0.92068,-19.717193 6.29539,-23.659209 2.43087,-1.782892 4.62313,-2.101531 16.75,-2.434567 L 205,70.777576 l 0,-16.247227 0,-16.247227 -5.25,-0.630599 c -2.8875,-0.346829 -11.11796,-0.63451 -18.2899,-0.639291 -19.96044,-0.01331 -29.77998,3.349522 -39.36049,13.479501 -9.85759,10.422948 -12.06372,18.411823 -12.08483,43.761806 l -0.0148,17.750001 -16,0 -16.000004,0 0,18.5 0,18.5 16.000004,0 16,0 0,47 0,47 -59.25,-0.002 c -54.41305,-0.001 -59.5341,-0.14429 -62.7300597,-1.75 z"
     style="fill:#ffffff" />
</svg>
