<?xml version="1.0" encoding="UTF-8" standalone="no"?>
<svg
   xmlns:dc="http://purl.org/dc/elements/1.1/"
   xmlns:cc="http://creativecommons.org/ns#"
   xmlns:rdf="http://www.w3.org/1999/02/22-rdf-syntax-ns#"
   xmlns:svg="http://www.w3.org/2000/svg"
   xmlns="http://www.w3.org/2000/svg"
   xml:space="preserve"
   style="enable-background:new 0 0 206.9 804.1;"
   viewBox="0 0 206.9 804.1"
   y="0px"
   x="0px"
   id="Слой_1"
   version="1.1"><title
     id="title3353">like</title><metadata
     id="metadata3351"><rdf:RDF><cc:Work
         rdf:about=""><dc:format>image/svg+xml</dc:format><dc:type
           rdf:resource="http://purl.org/dc/dcmitype/StillImage" /><dc:title>like</dc:title></cc:Work></rdf:RDF></metadata><defs
     id="defs3349" /><style
     id="style3337"
     type="text/css">
	.st0{fill:#E53535;}
</style><g
     id="g3339"><path
       id="path3341"
       d="M206.9,680.2c0,14.5-5.8,26.9-14.1,38.3c-4.1,5.5-8.6,10.7-13.6,15.4c-23.3,22.4-46.5,44.8-69.8,67.2   c-4.2,4-7.8,4-12,0c-23.5-22.6-47-45.3-70.4-67.9c-11.2-10.8-20.6-22.8-24.6-38c-5-18.6-2.5-36.1,10-51.3c8-9.7,19-14,31.1-16.1   c19.7-3.4,35.9,3.8,50.6,15.9c2.7,2.2,5.4,4.5,7.9,7c1.2,1.1,1.7,1,2.8-0.1c7.8-7.5,16.4-13.9,26.1-18.7   c18.5-9.2,45.8-4.5,59.2,7.6c9.8,8.8,14.7,20,16.1,32.9C206.6,674.9,206.7,677.5,206.9,680.2z"
       class="st0" /><path
       style="fill:#999999"
       id="path3343"
       d="M51,0.2c12-0.5,21.9,2.5,31,8c7.2,4.4,14,9.4,20,15.4c1.2,1.2,1.8,1.1,3,0c9.1-8.5,18.7-16.6,30.8-20.5   c19.5-6.3,38-3.6,54.2,9.4c10.4,8.3,14.8,20,16.4,32.9c2.5,19.8-5.1,36.1-17.2,50.9c-3.3,4.1-6.9,7.9-10.7,11.6   c-23,22.1-45.9,44.2-68.9,66.3c-4.2,4.1-7.8,4.1-12,0c-23.5-22.6-46.9-45.3-70.4-67.9C16.3,96,7.1,84.4,2.8,69.8   c-5.6-19-3.3-37,9.5-52.7C20.3,7.4,31.3,2.9,43.4,1C46.4,0.6,49.3,0.4,51,0.2z M18.2,69.6c4.3,10.3,11.2,18.7,19.1,26.3   c21.5,20.8,43,41.5,64.5,62.3c1.3,1.3,2,1.3,3.3,0c21.4-20.7,42.9-41.4,64.4-62.1c3.6-3.5,7-7.2,10.1-11.2   c9.7-12.3,14.9-25.9,11.4-41.8c-2-9.2-5.8-17.4-14.4-22.1c-13.1-7.1-26.6-8.7-40.5-1.9c-10.5,5.1-18.9,12.8-26.8,21.3   c-3.6,3.9-8.3,3.9-11.8,0c-5.1-5.7-10.8-10.6-16.8-15.2c-11.7-8.9-24.5-12.5-39-8.8c-12.6,3.2-21.5,10.3-25,23.3   c-1.2,4.5-1.8,9-1.8,14.2C14.8,59,16,64.4,18.2,69.6z" /><path
       id="path3345"
       d="M206.8,367.2c0.2,14.6-5.6,27.1-14.1,38.5c-4.6,6.3-9.9,11.9-15.5,17.2c-22.6,21.7-45.2,43.4-67.7,65.2   c-4.2,4.1-7.8,4.1-12,0.1c-23.5-22.7-47.1-45.4-70.6-68.1c-11.1-10.7-20.5-22.7-24.5-37.9c-5.1-19.4-2.4-37.5,11.4-52.9   c7.9-8.8,18.4-12.6,29.9-14.6c19.6-3.4,35.8,3.8,50.4,15.9c2.8,2.3,5.5,4.7,8.1,7.1c1,0.9,1.5,1,2.5,0c5.6-5.6,12-10.1,18.5-14.6   c22.1-15.2,52.6-9.6,67.1,3.5c9.8,8.8,14.5,19.9,16,32.7c0.2,1.6,0.3,3.2,0.4,4.8C206.8,365.1,206.8,366.2,206.8,367.2z M191,356.8   c-2.5-12.5-9.3-21.2-21.6-25.4c-14.5-4.9-28.1-3.2-40.6,5.7c-7.1,5-13.6,10.6-19.4,17c-3.6,4-8.3,4-11.8,0.1c-4.3-4.7-9-9-14-13   c-12.3-10.1-25.9-15.2-41.9-11c-9.6,2.5-17.9,7-22.3,16.4c-5.7,12.3-6.4,24.9-1,37.5c4.3,9.9,11,18.1,18.7,25.5   c21.5,20.8,43.2,41.6,64.7,62.4c1.4,1.4,2.1,1.1,3.4-0.1c21.4-20.7,42.8-41.3,64.2-61.9c5.1-4.9,9.8-10.3,13.7-16.2   c5.4-8.1,9.1-16.8,8.9-27.4C192.1,363.6,191.7,360.2,191,356.8z"
       class="st0" /></g></svg>