<?xml version="1.0" encoding="UTF-8" standalone="no"?>
<svg
   xmlns:dc="http://purl.org/dc/elements/1.1/"
   xmlns:cc="http://creativecommons.org/ns#"
   xmlns:rdf="http://www.w3.org/1999/02/22-rdf-syntax-ns#"
   xmlns:svg="http://www.w3.org/2000/svg"
   xmlns="http://www.w3.org/2000/svg"
   viewBox="0 0 234.79269 234.50005"
   height="234.50005"
   width="234.79269"
   version="1.1"
   id="svg3440">
  <metadata
     id="metadata3446">
    <rdf:RDF>
      <cc:Work
         rdf:about="">
        <dc:format>image/svg+xml</dc:format>
        <dc:type
           rdf:resource="http://purl.org/dc/dcmitype/StillImage" />
        <dc:title></dc:title>
      </cc:Work>
    </rdf:RDF>
  </metadata>
  <defs
     id="defs3444" />
  <path
     id="path3450"
     d="M 17.117103,231.92161 C 14.271313,230.5035 9.9396728,227.1151 7.4912328,224.39185 -0.60809718,215.38344 -0.17542718,221.78664 0.12861282,115.43189 L 0.39856282,21 2.6547028,16.777804 C 6.1931828,10.155812 10.557083,5.815038 16.716963,2.790085 L 22.398563,0 l 95.500007,0 95.5,0 5.35541,2.966298 c 2.94547,1.631465 7.08369,4.92973 9.19603,7.32948 7.36686,8.369192 7.01979,2.750155 6.71841,108.772032 L 234.39857,214 l -2.16748,4 c -2.94745,5.4394 -9.88423,11.96553 -15.33252,14.42482 -4.42045,1.99535 -6.1804,2.03164 -99.55366,2.05322 l -95.053657,0.022 -5.17415,-2.57839 z m 188.475707,-26.83449 2.80576,-2.41289 0.27628,-51.58711 0.27627,-51.587121 -10.59366,0 c -9.63225,0 -10.54371,0.15882 -10.04317,1.750001 7.70951,24.50797 -2.34316,55.11699 -23.77107,72.37969 -15.58444,12.55509 -35.70338,18.34834 -55.40253,15.95316 -18.371693,-2.23378 -30.772867,-8.39051 -44.312737,-21.99965 -14.86735,-14.94342 -20.68605,-30.20704 -19.60612,-51.43082 0.31211,-6.13381 0.86952,-12.38988 1.23868,-13.90238 l 0.67121,-2.750001 -10.61658,0 -10.61658,0 0,50.923271 0,50.92328 2.5889,3.07672 2.58889,3.07673 85.855347,0 85.85534,0 2.80577,-2.41288 z m -75.2292,-44.12003 c 8.58823,-2.23695 14.72998,-5.95892 21.54609,-13.05719 8.47267,-8.82341 12.09604,-16.88561 12.75094,-28.37156 0.89059,-15.61962 -4.79413,-28.240171 -17.23475,-38.262548 -21.50521,-17.324973 -53.706353,-12.259317 -69.690557,10.963227 -10.97077,15.938821 -9.1954,39.347431 4.13258,54.488821 11.449574,13.00739 31.087587,18.77349 48.495697,14.23925 z m 72.10307,-89.931101 c 5.34465,-2.23314 6.43189,-5.958064 6.43189,-22.035989 0,-22.897917 -0.981,-23.789216 -25.66291,-23.316276 L 166.72977,26 l -2.9156,3.265777 -2.9156,3.265776 0,16.349365 c 0,15.187212 0.15198,16.542579 2.13812,19.06754 1.17596,1.494997 3.08846,3.10216 4.25,3.571473 3.79321,1.532631 31.25787,1.154823 35.17999,-0.483942 z"
     style="fill:#ffffff" />
</svg>
