<?xml version="1.0" encoding="UTF-8" standalone="no"?>
<svg
   xmlns:dc="http://purl.org/dc/elements/1.1/"
   xmlns:cc="http://creativecommons.org/ns#"
   xmlns:rdf="http://www.w3.org/1999/02/22-rdf-syntax-ns#"
   xmlns:svg="http://www.w3.org/2000/svg"
   xmlns="http://www.w3.org/2000/svg"
   viewBox="0 0 597.40302 389.41528"
   height="389.41528"
   width="597.40302"
   version="1.1"
   id="svg3384">
  <metadata
     id="metadata3390">
    <rdf:RDF>
      <cc:Work
         rdf:about="">
        <dc:format>image/svg+xml</dc:format>
        <dc:type
           rdf:resource="http://purl.org/dc/dcmitype/StillImage" />
        <dc:title></dc:title>
      </cc:Work>
    </rdf:RDF>
  </metadata>
  <defs
     id="defs3388" />
  <path
     id="path3394"
     d="M 51.533821,388.83254 C 20.612856,385.22422 -4.0228032,362.7818 0.54802383,342.38585 3.5244268,329.10455 17.29916,318.22107 36.033821,314.34837 c 10.68155,-2.20802 34.9673,-1.40159 62,2.05877 10.999999,1.40807 23.612879,2.84087 28.028609,3.18401 l 8.02861,0.6239 3.1525,-15.88291 c 1.73387,-8.7356 7.65143,-35.45791 13.15012,-59.38291 11.1071,-48.32738 14.86297,-66.61052 13.88467,-67.58882 -0.36003,-0.36003 -3.71233,-0.0598 -7.44956,0.66729 -27.65628,5.38026 -57.650639,-5.58093 -82.307119,-30.07847 -23.36945,-23.2188 -39.516167,-55.448351 -39.327787,-78.499996 0.173895,-21.2792 13.302627,-43.259878 30.839957,-51.633557 7.26143,-3.467168 8.52898,-3.528946 11.32569,-0.551992 2.98577,3.178207 2.72655,5.787001 -0.91894,9.248458 -6.37816,6.056173 -10.85299,19.229143 -10.88939,32.056101 -0.0409,14.427037 5.19757,34.673653 12.95321,50.063626 14.58179,28.93554 38.668969,48.90097 64.386329,53.36869 11.15705,1.93825 22.40128,-0.74923 25.11838,-6.00353 0.76915,-1.48737 2.32546,-8.40777 3.45848,-15.37867 5.8198,-35.80643 12.58373,-58.515668 25.0697,-84.169126 10.95155,-22.500858 25.08597,-41.925317 37.44641,-51.4613253 4.42851,-3.416567 6.6762,-4.44046104 10.56901,-4.81451104 4.54767,-0.436974 5.18212,-0.220501 7.90886,2.69848604 8.9708,9.6032733 14.03068,44.8390633 9.55232,66.5201663 -4.92098,23.823976 -16.57946,42.03274 -47.13633,73.61977 -5.0879,5.25943 -9.73188,10.82812 -10.31995,12.37486 -0.58807,1.54675 -7.57002,30.54359 -15.51543,64.43741 -20.43856,87.18749 -24.36655,104.52681 -23.86519,105.34801 1.50719,2.46865 30.4066,8.65758 52.85684,11.31951 21.28989,2.52435 78.43737,3.11056 103.66126,1.06333 56.52161,-4.58742 91.27855,-14.13685 119.33874,-32.78819 10.26087,-6.8203 22.34088,-18.71917 26.46435,-26.06752 1.77461,-3.1625 3.43819,-5.75 3.69685,-5.75 4.58705,0 7.38369,9.87849 5.44876,19.24651 -3.70804,17.95252 -16.27175,39.47518 -30.78786,52.74208 -20.99836,19.19132 -45.28587,26.91793 -90.87203,28.90922 -30.85782,1.34793 -69.87005,-0.92054 -103.45007,-6.01538 -19.0922,-2.89671 -62.27989,-11.24578 -79.57192,-15.38289 -19.84852,-4.74875 -19.92573,-4.74243 -28.1524,2.30435 -29.67827,25.42171 -62.521809,37.55155 -92.275679,34.07942 z m 32.34074,-22.84258 c 14.32262,-3.66311 39.659259,-18.71845 39.659259,-23.56601 0,-1.78134 -1.15905,-2.08012 -17.5,-4.51119 -17.655909,-2.62669 -49.542189,-3.7311 -57.832809,-2.00308 -9.561138,1.99282 -14.308947,8.36213 -12.274774,16.46692 0.83101,3.31101 6.082634,9.24335 10.006024,11.30302 8.60719,4.51853 25.32756,5.53665 37.9423,2.31034 z M 217.47368,113.78843 c 8.4439,-11.18311 13.33697,-19.705724 17.45666,-30.405577 6.31437,-16.399951 10.08358,-41.136485 7.44458,-48.857094 -0.73761,-2.157911 -1.81022,-4.076783 -2.38358,-4.26416 -2.54799,-0.832689 -14.60549,22.934094 -21.39719,42.176426 -5.14883,14.587729 -9.96035,37.232435 -10.04201,47.261205 -0.0337,4.13956 2.70091,2.32779 8.92154,-5.9108 z m -15.43986,201.5914 c -7.11152,-3.69107 -13.71234,-13.80243 -15.5698,-23.85034 -3.63346,-19.6552 11.96619,-60.61323 33.0377,-86.74293 22.96444,-28.47704 40.30986,-34.39362 56.82716,-19.38393 4.3377,3.94177 7.70731,9.79507 6.87997,11.95108 -0.31953,0.83268 -2.06394,1.89824 -3.87647,2.36791 -5.26255,1.36367 -4.55935,3.45711 2.74885,8.18342 7.08741,4.58352 10.44282,8.85478 10.44885,13.30082 0.002,1.51615 -3.27901,9.16615 -7.29127,17 -9.01147,17.59473 -11.4319,27.07106 -8.72974,34.17827 1.21749,3.20226 4.69071,3.4023 8.40091,0.48385 1.45523,-1.14468 6.16843,-6.01 10.47377,-10.81181 l 7.82789,-8.73057 0.64978,-6.93818 c 1.49466,-15.95975 12.85517,-54.23801 17.26953,-58.18819 1.38292,-1.2375 3.18665,-2.25 4.00829,-2.25 3.89833,0 16.40324,8.98277 20.27159,14.56188 1.16764,1.68403 2.12299,4.33551 2.12299,5.89216 0,1.55666 -2.88609,8.27881 -6.41353,14.93812 -7.71419,14.5633 -10.58647,22.70582 -10.58647,30.01119 0,15.81709 6.65025,14.15086 26.6288,-6.67189 19.63733,-20.46711 18.15279,-17.62982 26.2823,-50.23146 2.74294,-11 7.51713,-29.45 10.60931,-41 3.09218,-11.55 8.03034,-30.23495 10.97368,-41.52211 7.29655,-27.980829 10.17326,-35.386867 16.43805,-42.319469 6.03575,-6.679134 17.01871,-8.763499 24.06786,-4.567639 7.75244,4.614478 7.76884,7.047054 0.13274,19.692775 -16.33018,27.043523 -29.32051,60.133843 -37.96815,96.716443 -3.23441,13.68272 -6.2237,28.89244 -5.54509,28.21383 0.22049,-0.22049 2.4031,-4.51465 4.85024,-9.54257 5.63466,-11.57702 12.88817,-22.34269 20.62922,-30.6179 16.71441,-17.86775 35.14505,-16.42963 38.81726,3.02887 3.40123,18.02264 -12.79213,37.77249 -27.69663,33.77953 -2.18805,-0.58618 -2.25391,-0.9034 -1.62607,-7.8318 0.56124,-6.19353 0.41763,-7.3117 -1.00941,-7.85931 -2.57415,-0.98779 -9.41216,5.99547 -14.88894,15.20519 l -4.80483,8.07977 5.52696,6.7722 c 3.03983,3.7247 7.80479,9.58334 10.5888,13.01919 8.19737,10.11671 17.44121,13.11327 23.84073,7.72843 6.7817,-5.70642 15.80682,-20.00344 33.12562,-52.47543 14.44013,-27.07462 26.81355,-42.77214 40.84069,-51.81246 15.69664,-10.11631 26.38846,-9.06432 39.38462,3.87509 8.6158,8.57819 8.72261,13.93737 0.27778,13.93737 -5.03194,0 -4.76357,1.01296 1.31483,4.96276 3.1403,2.04059 7.62213,5.7987 9.95963,8.35136 6.08386,6.64386 5.85997,9.15188 -2.10957,23.63143 -3.49777,6.35495 -7.33179,14.18295 -8.52006,17.39556 -3.43368,9.28338 -2.91368,20.62877 1.04254,22.74608 2.6009,1.39196 7.11739,-1.52709 15.58187,-10.07071 6.5474,-6.60862 8.67944,-7.15876 9.83897,-2.5388 1.48374,5.91169 -2.90551,16.04985 -11.11012,25.66179 -11.45712,13.42236 -21.85225,14.53454 -32.87,3.51679 -5.53599,-5.53599 -9.45869,-13.02757 -11.53426,-22.02816 l -1.58469,-6.8719 -10.99234,16.78285 c -6.04579,9.23057 -13.74712,19.63542 -17.11407,23.1219 -7.26723,7.52522 -10.19677,8.10838 -17.4919,3.48194 -8.3886,-5.31989 -13.87351,-13.84129 -16.15055,-25.09164 l -1.28897,-6.36852 -9.47342,14.78192 c -13.76353,21.476 -18.85868,26.55221 -26.62456,26.52558 -9.06606,-0.0311 -23.09428,-12.12057 -30.33496,-26.1426 -2.3708,-4.5912 -5.17444,-9.58513 -6.23032,-11.09763 -6.18201,-8.85547 -11.28924,3.97922 -12.43512,31.25 -0.67561,16.07875 -1.40334,18.016 -6.75346,17.97804 -7.6005,-0.0539 -18.89239,-8.71584 -20.1582,-15.46318 -0.48947,-2.60911 0.0444,-5.77253 1.94422,-11.52087 1.44043,-4.3583 2.61897,-8.40804 2.61897,-8.99942 0,-0.59139 -2.91656,2.79175 -6.48124,7.51807 -8.32475,11.03759 -22.24245,26.22197 -25.7191,28.05986 -3.18567,1.68406 -9.536,1.85844 -13.45247,0.3694 -4.19875,-1.59636 -10.77094,-7.35646 -14.06102,-12.32357 l -2.93205,-4.4266 -9.87602,12.98806 c -5.43182,7.14343 -10.97242,13.85048 -12.31246,14.90456 -7.36458,5.79298 -16.06334,4.60367 -24.81229,-3.39238 -6.06523,-5.54327 -8.47646,-9.61958 -10.31733,-17.44197 -0.67953,-2.8875 -1.60865,-5.25 -2.06472,-5.25 -0.45607,0 -2.95648,3.4875 -5.55645,7.75 -12.06424,19.77855 -21.73423,33.46881 -25.63765,36.29644 -4.64816,3.3671 -9.54248,3.8416 -14.2772,1.38416 z m 25.00558,-36.6806 c 14.98987,-16.51334 35.49442,-55.62369 35.49442,-67.702 0,-3.06823 -0.028,-3.0849 -2.78345,-1.65998 -4.65158,2.40542 -20.3288,18.74505 -27.04051,28.18305 -10.73585,15.09672 -16.17604,28.70806 -16.17604,40.47236 0,9.25346 2.58913,9.4276 10.50558,0.70657 z m 291.03148,-48.35372 c 10.28164,-10.28165 22.91417,-29.23885 29.2512,-43.89628 3.78547,-8.75573 8.54839,-23.99004 8.00759,-25.61244 -0.47061,-1.41183 -13.96412,10.17737 -21.23081,18.23455 -15.05305,16.69055 -26.56504,38.08051 -26.56504,49.35939 0,6.46588 5.06547,7.38636 10.53706,1.91478 z M 346.53382,187.40443 c -5.19755,-1.62337 -15.58181,-9.44326 -17.17066,-12.93041 -1.5382,-3.37598 -0.51132,-6.22633 4.55367,-12.63985 10.00083,-12.6635 26.04871,-14.47961 34.90836,-3.95051 4.24602,5.0461 4.11693,5.43649 -6.60536,19.97606 -9.19471,12.46815 -8.22167,11.87607 -15.68601,9.54471 z"
     style="fill:#FFFFFF" />
</svg>
