<?xml version="1.0" encoding="UTF-8" standalone="no"?>
<svg
   xmlns:dc="http://purl.org/dc/elements/1.1/"
   xmlns:cc="http://creativecommons.org/ns#"
   xmlns:rdf="http://www.w3.org/1999/02/22-rdf-syntax-ns#"
   xmlns:svg="http://www.w3.org/2000/svg"
   xmlns="http://www.w3.org/2000/svg"
   id="svg-logo-bymind"
   version="1.1"
   width="600"
   height="333.88956"
   viewBox="0 0 600 333.88956">
  <metadata
     id="metadata-logo-bymind">
    <rdf:RDF>
      <cc:Work
         rdf:about="">
        <dc:format>image/svg+xml</dc:format>
        <dc:type
           rdf:resource="http://purl.org/dc/dcmitype/StillImage" />
        <dc:title></dc:title>
      </cc:Work>
    </rdf:RDF>
  </metadata>
  <defs
     id="defs-logo-bymind" />
  <path
     id="logo-bymind"
     d="m 228.26754,333.80561 c -1.2676,-0.1202 -1.39975,-0.1663 -0.76596,-0.2663 l 0.76596,-0.1223 -0.81297,-0.035 c -1.32496,-0.057 -5.15746,-0.8605 -7.05071,-1.4775 -2.31252,-0.7526 -6.56796,-2.817 -8.7619,-4.2494 -4.76545,-3.1094 -7.66644,-5.9085 -15.75676,-15.1987 -3.95387,-4.5413 -8.02592,-8.9214 -11.58978,-12.4686 -5.47163,-5.4465 -6.66174,-6.8776 -8.09684,-9.7347 -0.79694,-1.5876 -1.51144,-3.7182 -1.99508,-5.9507 -0.57595,-2.6594 -0.53342,-9.3016 0.0852,-13.2995 0.48062,-3.1068 2.40829,-12.1603 3.14398,-14.7664 2.88786,-10.2286 7.55237,-14.4061 19.40021,-17.3749 3.80608,-0.9532 17.77279,-3.676 20.21631,-3.9414 5.4893,-0.5951 8.58321,1.04 12.49795,6.607 0.90603,1.2875 2.43698,2.1876 2.66436,2.1876 0.4763,0 2.06332,-0.9373 2.80282,-2.2039 3.27038,-5.5935 3.70798,-7.2596 10.74617,-6.6012 5.3778,0.5028 16.89962,3.2064 29.42825,7.7045 8.39077,1.9439 8.83977,10.6062 11.0764,17.9977 3.43009,11.435 2.89601,21.8759 -1.57683,30.8254 -3.09501,6.1908 -7.46395,11.2481 -14.7493,17.0715 -2.69829,2.1581 -4.65759,3.9854 -7.7656,7.2434 -9.54998,10.0146 -11.97215,12.1753 -15.78211,14.0822 -3.2786,1.641 -8.44883,3.1356 -11.99964,3.4677 -1.42001,0.1333 -1.46747,0.1537 -0.65636,0.2823 l 0.87555,0.1375 -1.11619,0.031 c -0.61402,0.017 -1.69661,0.069 -2.40628,0.1145 -0.70967,0.046 -1.97932,0.018 -2.82081,-0.062 z m 18.08458,-42.8546 c 4.14532,0 15.01805,-7.7221 20.3231,-12.9485 3.77485,-3.7209 5.15366,-6.3837 5.39126,-10.416 0.23389,-3.9913 -1.04173,-7.3411 -3.86478,-10.1514 -2.63986,-2.6257 -4.9321,-3.6098 -11.68288,-5.0108 -13.14,-2.7292 -27.23171,-2.7985 -44.72144,-0.2201 -9.19635,1.356 -11.38371,1.8776 -14.30469,3.412 -6.93777,3.6458 -7.72466,12.7285 -1.81616,20.9652 1.65354,2.3047 3.15511,3.799 6.5025,6.4736 7.54385,6.0262 10.89975,7.8601 14.36437,7.8492 3.1934,-0.01 5.2277,-1.2599 10.39583,-6.3854 1.56435,-1.1014 2.90987,-3.3989 4.46212,-3.3989 1.55343,0 2.10279,2.1339 4.14781,4.2224 4.49011,4.5819 6.46795,5.6087 10.80296,5.6087 z M 61.7974,241.68891 c -0.72188,-0.1005 -1.58325,-0.2868 -1.91406,-0.414 l -0.60157,-0.23 0,-2.3277 c 0,-2.3093 0.004,-2.3277 0.49222,-2.1934 1.36802,0.3765 3.7096,0.611 4.97658,0.4998 4.17783,-0.3656 7.73153,-3.1425 10.26381,-8.021 0.85696,-1.6507 7.01753,-16.2153 7.01753,-16.5903 0,-0.1108 -5.12945,-13.6252 -11.39865,-30.0323 -6.26931,-16.4071 -11.53134,-30.2003 -11.69346,-30.6514 l -0.29483,-0.8203 2.68762,0 2.68762,0 9.67676,26.1172 c 5.32216,14.3646 9.82518,26.694 10.00667,27.3987 0.63278,2.4573 1.24339,2.3663 2.14227,-0.3191 0.30947,-0.9246 5.11506,-13.272 10.67905,-27.4389 l 10.11647,-25.7579 2.59364,0 c 1.98513,0 2.56922,0.064 2.48885,0.2734 -0.0577,0.1504 -7.01516,17.3487 -15.46099,38.2185 -8.71189,21.5271 -15.96754,39.148 -16.76927,40.7242 -3.35049,6.5891 -6.99118,10.1193 -11.57122,11.2201 -1.72976,0.4166 -4.49168,0.5708 -6.12504,0.3444 z m 505.05981,-28.1042 c -4.4451,-0.8066 -8.4064,-2.8349 -11.741,-6.0128 -4.3174,-4.1136 -6.9851,-9.2913 -8.2628,-16.0403 -0.5858,-3.0925 -0.8176,-10.9659 -0.424,-14.4053 0.9466,-8.2563 3.9587,-14.9998 8.9746,-20.0922 3.7147,-3.7708 7.7832,-6.0199 12.9118,-7.1371 2.2977,-0.5007 9.1803,-0.5747 11.2655,-0.1211 5.9665,1.2975 10.0981,4.109 13.3347,9.0737 1.2177,1.8681 1.6904,2.2447 1.955,1.5564 0.072,-0.1902 0.1319,-9.1481 0.1319,-19.9063 l 0,-19.5604 2.388,0 c 1.7067,0 2.4196,-0.078 2.4985,-0.2733 0.061,-0.1505 0.1106,20.5461 0.1106,45.9923 0,25.4463 -0.05,46.1429 -0.1106,45.9925 -0.079,-0.1953 -0.7918,-0.2735 -2.4985,-0.2735 l -2.388,0 0,-5.3156 c 0,-5.1597 -0.08,-5.8407 -0.6864,-5.8407 -0.088,0 -0.7203,0.8592 -1.405,1.9092 -3.6205,5.5544 -9.3418,9.2526 -16.1486,10.4397 -2.3617,0.4119 -7.6726,0.4198 -9.9057,0.015 z m 11.3017,-4.4648 c 4.0234,-0.9108 6.9689,-2.4341 9.6359,-4.9827 3.445,-3.2906 5.6164,-7.2856 6.6991,-12.3225 0.3536,-1.6413 0.3997,-2.9628 0.3937,-11.2656 l -0.01,-9.4064 -0.57,-2.0806 c -1.01,-3.6952 -2.6651,-6.7325 -5.1042,-9.3661 -4.6572,-5.0291 -12.1598,-7.1453 -19.794,-5.5837 -6.2142,1.271 -11.8482,5.8605 -15.0754,12.2787 -3.0653,6.0966 -4.0766,16.4426 -2.4099,24.6432 2.0709,10.185 8.0204,16.7512 16.6814,18.4103 2.1159,0.4051 7.0726,0.2367 9.5503,-0.3246 z M 1.1e-4,169.22861 0,125.64251 l 1.91418,0.052 c 1.05281,0.029 7.08218,0.094 13.39862,0.1449 12.50353,0.1011 13.36513,0.1734 17.00179,1.4248 2.97342,1.0232 4.9413,2.2772 7.41421,4.7244 2.00298,1.9824 2.31742,2.4074 3.31764,4.4844 1.68039,3.4898 1.90583,4.6123 1.88879,9.404 -0.0123,3.452 -0.0847,4.3041 -0.49245,5.7969 -1.82095,6.6661 -6.49562,11.7619 -13.05032,14.226 -1.07476,0.404 -1.31393,0.5842 -1.31393,0.9901 0,0.46 0.169,0.5248 2.31073,0.8854 8.11552,1.3664 13.78173,6.1737 16.10039,13.6595 0.58435,1.8866 0.60624,2.129 0.60028,6.6611 -0.006,4.408 -0.043,4.84 -0.59464,6.8855 -0.7053,2.6154 -2.34732,6.0306 -3.85124,8.01 -2.97783,3.9192 -7.46493,7.0005 -12.06463,8.2849 -3.7203,1.0388 -4.75437,1.0991 -18.85257,1.1 -8.713,0 -13.28913,0.076 -13.28913,0.2197 0,0.1204 -0.0984,0.2188 -0.21875,0.2188 -0.1451,0 -0.21879,-14.6747 -0.21886,-43.5863 z m 29.3127,37.954 c 7.75597,-1.8875 12.19218,-6.0225 14.02329,-13.0709 0.4391,-1.6907 0.50982,-2.4788 0.50034,-5.5782 -0.009,-3.0151 -0.09,-3.8975 -0.49095,-5.3594 -1.93323,-7.048 -6.8706,-10.917 -16.22012,-12.7107 -2.45214,-0.4704 -20.6016,-0.7265 -21.11797,-0.298 -0.27576,0.2289 -0.31965,2.8095 -0.31965,18.7958 0,10.192 0.0722,18.6028 0.16034,18.6911 0.0882,0.088 4.98548,0.1204 10.88288,0.072 9.9184,-0.082 10.86194,-0.1227 12.58184,-0.5413 z m -5.53736,-42.3644 c 2.5598,-0.4914 5.72829,-1.6815 7.68139,-2.8852 0.92625,-0.5709 2.4834,-1.8404 3.46032,-2.8211 1.44251,-1.4483 1.96637,-2.1706 2.78891,-3.845 1.54794,-3.1515 1.77873,-4.2707 1.77873,-8.6243 0,-2.8796 -0.0872,-4.0341 -0.38604,-5.116 -1.55247,-5.6199 -5.29702,-8.8783 -11.98525,-10.4289 -1.37016,-0.3178 -3.15001,-0.393 -11.20978,-0.4734 -7.2698,-0.073 -9.65758,-0.032 -9.89849,0.1677 -0.27248,0.2261 -0.31749,2.6616 -0.31749,17.1791 0,15.8738 0.0236,16.9301 0.38281,17.1528 0.61882,0.3835 15.44812,0.1276 17.70489,-0.3057 z m 331.47669,4.2464 0,-43.3127 2.37945,0 c 1.64387,0 2.44535,0.084 2.59277,0.2734 0.4787,0.615 32.79661,70.6863 33.67277,73.0083 0.52161,1.3836 1.10446,2.934 1.2943,3.4452 0.26764,0.7165 0.46063,0.9298 0.84047,0.9298 0.441,0 0.64024,-0.41 1.8834,-3.8829 1.02443,-2.863 5.59941,-13.047 17.41995,-38.7736 l 16.02975,-34.8909 2.30289,-0.062 2.30286,-0.062 0,43.3201 0,43.3201 -2.40628,0 -2.40627,0 0.006,-32.1017 c 0.005,-25.1097 0.0737,-33.1975 0.31639,-37.133 0.24557,-4.0015 0.25348,-5.0877 0.0387,-5.3068 -0.46543,-0.4736 -0.86252,0.11 -1.97036,2.9005 -0.57319,1.4438 -8.2053,18.129 -16.96132,37.0783 l -15.91818,34.4534 -0.81917,0 -0.81799,0 -15.86841,-34.0158 c -13.01322,-27.8971 -16.07041,-34.6258 -16.99551,-37.4065 -0.94915,-2.8565 -1.19555,-3.3906 -1.56062,-3.3906 -0.39078,0 -0.42761,0.1292 -0.37301,1.3125 0.0333,0.7219 0.11216,17.5794 0.17664,37.4612 l 0.11724,36.1485 -2.63771,0 -2.63887,0 z m 102.81345,12.5782 0,-30.7345 2.40627,0 2.40628,0 0,30.7345 0,30.7345 -2.40628,0 -2.40627,0 z m 25.81265,0 0,-30.7345 2.29669,0 2.29668,0 0,5.232 c 0,2.8778 0.0599,5.388 0.13304,5.5783 0.2813,0.7346 0.90411,0.3436 1.74715,-1.0971 3.335,-5.7034 8.3412,-9.402 14.52999,-10.7352 2.84285,-0.6126 8.83022,-0.5573 11.47112,0.106 6.3866,1.6032 10.7459,5.9535 12.9838,12.957 1.4896,4.663 1.4387,3.7345 1.5172,27.717 l 0.071,21.711 -2.2897,0 -2.2897,0 -0.096,-20.3985 c -0.082,-17.557 -0.1456,-20.6858 -0.4516,-22.4607 -0.5494,-3.1809 -1.1638,-5.169 -2.3706,-7.6723 -0.9518,-1.9729 -1.3582,-2.5448 -2.884,-4.0542 -3.0009,-2.97 -6.0053,-4.0939 -10.96228,-4.1015 -3.1924,0 -4.96911,0.308 -7.66081,1.3486 -2.45548,0.9499 -4.27866,2.1973 -6.56758,4.494 -3.15773,3.1705 -5.19867,6.9596 -6.25162,11.61 -0.49095,2.1687 -0.49588,2.3552 -0.57233,21.7112 l -0.0771,19.5234 -2.2868,0 -2.28682,0 z m -176.9726,29.0392 c 0,-0.3308 0.20786,-4.6703 0.4641,-9.6431 0.29314,-5.7115 0.38802,-9.1181 0.25647,-9.2495 -0.3818,-0.3821 -0.84747,0.029 -1.4602,1.2905 -1.30839,2.6923 -3.89562,6.2419 -6.35467,8.7185 -7.49741,7.5519 -20.88418,10.0466 -29.07506,9.0835 -6.84599,-0.8048 -13.89145,-3.2294 -19.65601,-8.0151 -7.64297,-6.344 -9.55974,-9.0344 -15.90109,-24.9813 -2.70967,-6.815 -4.3986,-8.9822 -7.64336,-9.8136 -2.12476,-0.5442 -5.28329,0.15 -7.24407,1.5917 -2.02414,1.4884 -2.93053,3.2387 -4.18436,8.08 -2.9063,11.222 -8.99882,20.4897 -16.95609,25.7932 -9.17991,6.1183 -19.31548,7.2948 -29.44587,5.9138 -5.06621,-0.6906 -14.1664,-4.4081 -19.01474,-9.1907 -3.24798,-3.2041 -5.69002,-8.273 -6.29747,-8.4009 -0.0314,0.313 0.85116,7.3801 1.05579,13.737 0.0794,2.4665 0.12958,5.1744 0.0239,5.2821 -0.9034,0.2353 -2.24408,-3.1081 -3.48119,-7.4117 -3.95582,-13.7621 -10.07926,-41.6305 -12.14784,-71.9177 -2.87197,-42.048302 -0.51386,-76.544402 6.19125,-90.571202 l 1.03899,-2.1737 -0.0132,5.3567 c -0.0114,4.6526 0.0395,5.5078 0.38785,6.5071 0.49162,1.4102 0.98314,1.7301 2.13039,1.3862 0.99843,-0.2991 1.68922,-1.1881 6.64462,-8.5523 13.77075,-20.4644 25.59331,-31.551 40.85978,-38.3162997 5.90272,-2.6158 13.2582,-4.4389 18.53701,-4.5946 l 1.20888,-0.036 -1.20314,-0.1474 c -1.02113,-0.1251 -0.8557,-0.1533 1.09379,-0.1861 1.26329,-0.021 2.5429,-0.095 2.84369,-0.164 0.42886,-0.098 0.47606,-0.075 0.21883,0.109 -0.18047,0.1289 -0.51221,0.2359 -0.73708,0.2377 -0.54531,0 -5.346,3.2353 -8.32767,5.6046 -7.90184,6.2784997 -10.0211,10.1301997 -6.42524,11.6770997 2.79106,1.2007 4.61783,0.9572 8.40119,-1.1198 1.43241,-0.7864 3.93324,-2.1006 5.55748,-2.9205 3.08248,-1.5561 8.96488,-4.8306997 10.27742,-5.7211997 0.4189,-0.2842 0.82411,-0.5168 0.90111,-0.5168 0.077,0 0.20836,0.8121 0.29191,1.8047 0.20303,2.4260997 0.68714,4.4526997 1.31588,5.5185997 2.52948,4.2902 7.34696,3.569 18.31458,-2.742 1.72332,-0.9918 3.3401,-1.9372 3.59122,-2.1009997 0.44051,-0.2869 0.48785,-0.2154 1.28599,1.9468997 0.45522,1.2346 1.01917,2.7615 1.2535,3.3932 0.54077,1.4609 0.77591,1.4705 3.88181,0.1591 2.83995,-1.1984 5.5318,-2.7123 8.37326,-4.7083 l 2.12818,-1.4941997 3.65873,3.0613997 c 5.69401,4.7652 7.92286,6.0588 10.7931,6.2663 1.89365,0.1369 3.63705,-0.3292 6.37091,-1.7034 1.69667,-0.8528 2.16518,-1.013 2.07899,-0.7118 -0.29993,1.0474 -0.62195,6.2261 -0.53704,8.6242 0.0762,2.1861 0.18808,2.9104 0.58467,3.7931 1.2402,2.7657 3.03321,3.3087 7.22154,2.1866 2.63572,-0.7062 4.65091,-1.5589 6.7603,-2.8612 1.89382,-1.1689 5.90011,-4.0843 8.32181,-6.0571 0.8871,-0.722 1.68355,-1.2193 1.782,-1.1134 0.47863,0.509 1.29276,6.859 2.0884,16.2697 0.30041,3.5493 0.60549,6.8727 0.67916,7.3854 0.19119,1.3312 0.79872,2.0209 1.77994,2.0209 0.66177,0 0.96089,-0.1778 1.84521,-1.0946 2.61175,-2.7105 4.88271,-6.3808 6.53015,-10.5584 0.51094,-1.2959 0.96565,-2.3193 1.01076,-2.2742 0.16605,0.1657 0.75616,3.6282 1.16191,6.8178 0.55929,4.3934 0.80161,7.2337 1.32266,15.5313 0.48038,7.652 0.55253,8.2959 1.0085,9.0236 0.55758,0.8876 1.33403,0.6456 2.81159,-0.8751 1.52956,-1.5754 2.96416,-3.6671 4.47349,-6.5256 1.20844,-2.2879 1.15803,-2.3266 1.58485,1.221 0.44605,3.7172 0.34238,10.8248 -0.22975,15.75 -1.44075,12.3974 -6.39645,41.966502 -14.70361,87.719202 -2.48629,13.6929 -5.33955,29.9144 -6.98208,39.7033 -1.23238,7.3428 -1.54686,8.34 -3.06928,9.7149 -1.04303,0.9426 -1.30497,0.9793 -1.30738,0.1836 z m -16.04294,-6.5615 c 6.79723,-3.3407 10.86107,-7.3544 12.19736,-16.3527 1.61163,-10.8571 1.14545,-20.3925 -1.23413,-25.2267 -1.31202,-2.665 -4.11653,-4.8718 -7.39559,-5.8184 -6.26108,-1.808 -18.34362,-1.8072 -31.38141,0 -14.24446,1.9767 -17.83198,2.9571 -20.46826,5.5942 -2.02648,2.026 -2.59216,4.1027 -2.76212,10.1362 -0.10036,3.5624 0.67934,7.981 1.34885,10.1797 2.40321,7.8935 6.1998,13.2215 11.90175,17.6207 4.53024,3.4944 10.51156,5.8768 16.10388,6.7431 7.1702,1.1862 14.89363,0.4623 21.68967,-2.8783 z m -102.41468,1.5302 c 6.72521,-2.1802 13.41601,-5.7652 18.63456,-13.4068 5.21852,-7.6418 5.46369,-13.7206 5.58038,-19.2384 0.10335,-4.889 -0.64628,-9.311 -2.58895,-11.5808 -1.70377,-1.9903 -4.73664,-3.3345 -8.41153,-3.7276 -8.29277,-0.8875 -23.80221,-1.4272 -31.94285,-1.1117 -15.3177,0.5936 -20.2936,1.8171 -21.16116,5.2028 -0.49138,1.9178 -1.17791,9.4094 -1.28348,14.004 -0.12896,5.6211 0.48073,8.669 1.55157,13.9091 0.74872,3.6645 1.58437,5.1931 2.41394,6.4086 2.92328,4.2834 7.60523,7.1723 16.97928,9.9035 3.77369,1.0995 13.50303,1.8177 20.22824,-0.3627 z m 41.24066,-46.3019 c 1.02231,-0.1692 3.43406,-0.669 5.35932,-1.1105 12.693,-2.9114 24.27296,-4.6718 38.28121,-5.8197 1.56479,-0.1282 7.5202,-0.2832 13.23451,-0.3445 9.4647,-0.1014 10.7892,-0.071 14.85936,0.3457 5.34783,0.5472 6.21705,0.5645 6.57804,0.1304 0.39845,-0.4806 0.15735,-13.8208 -0.30843,-17.0639 -1.83833,-12.7922 -5.74572,-21.9656 -12.22088,-28.6886 -4.73404,-4.9139 -9.97288,-8.004202 -16.43272,-9.692102 -4.21771,-1.102 -5.28602,-1.2138 -11.50638,-1.2045 -6.49208,0.01 -8.07594,0.2035 -15.03089,1.8359 -10.94061,2.567902 -18.41494,3.505102 -29.28364,3.671602 -11.56169,0.177 -16.28092,-0.2837 -31.92008,-3.115402 -4.29825,-0.7782 -10.05779,-0.9589 -14.10946,-0.4426 -7.51433,0.9576 -14.08543,3.636102 -19.57826,7.980302 -1.68229,1.3306 -4.96878,4.7343 -6.47402,6.7049 -4.19557,5.493 -7.1476,12.796 -8.4369,20.8723 -0.32373,2.0278 -0.39884,3.7039 -0.387,8.6407 0.0156,6.524 0.37988,10.3321 1.05265,11.0048 0.30291,0.3029 0.93344,0.2883 6.30647,-0.1458 28.56595,-2.308 47.74668,-0.8842 67.45747,5.0076 5.90145,1.7641 8.66102,2.0789 12.55963,1.4334 z m 229.14168,-25.4669 c -1.71199,-0.8191 -2.51587,-2.0975 -2.51587,-4.0024 0,-1.2134 0.21489,-1.7508 1.06672,-2.6705 0.86222,-0.9324 1.705,-1.2821 3.08791,-1.2821 3.51175,0 5.37524,3.1632 3.6632,6.2204 -1.01227,1.8093 -3.46721,2.6125 -5.30196,1.7346 z"
     style="fill:#333333;image-rendering:auto" />
</svg>
