<?xml version="1.0" encoding="UTF-8" standalone="no"?>
<svg
   xmlns:dc="http://purl.org/dc/elements/1.1/"
   xmlns:cc="http://creativecommons.org/ns#"
   xmlns:rdf="http://www.w3.org/1999/02/22-rdf-syntax-ns#"
   xmlns:svg="http://www.w3.org/2000/svg"
   xmlns="http://www.w3.org/2000/svg"
   viewBox="0 0 190.61595 336.24484"
   height="336.24484"
   width="190.61595"
   version="1.1"
   id="svg3348">
  <metadata
     id="metadata3354">
    <rdf:RDF>
      <cc:Work
         rdf:about="">
        <dc:format>image/svg+xml</dc:format>
        <dc:type
           rdf:resource="http://purl.org/dc/dcmitype/StillImage" />
        <dc:title></dc:title>
      </cc:Work>
    </rdf:RDF>
  </metadata>
  <defs
     id="defs3352" />
  <path
     id="path3358"
     d="m 126.27938,335.45545 c -16.0323,-2.35668 -29.303535,-9.051 -41.993115,-21.18231 C 72.300375,302.81456 53.861215,281.58864 46.280255,270.5232 19.346685,231.21 -2.0803948,157.99784 0.16120524,112.94339 0.87503524,98.595779 5.0926752,67.534934 7.7189952,57.283859 12.766635,37.581898 23.795105,22.523897 41.624535,10.990098 57.450405,0.75239845 65.758545,-1.5572215 77.905715,0.90410845 88.147985,2.9794585 99.135735,7.0491985 101.47739,9.6347985 c 1.62631,1.7957395 1.89429,4.7587495 2.45657,27.1621035 0.34712,13.830567 0.96463,30.334074 1.37226,36.674459 0.73899,11.494608 0.73347,11.53709 -1.90931,14.677848 -3.22857,3.836938 -10.175665,6.285211 -27.625855,9.735825 -14.0494,2.778136 -18.60227,4.386586 -21.48854,7.591516 -1.82392,2.0253 -1.96326,3.49571 -1.77086,18.68769 0.52368,41.35015 9.45992,72.11475 31.58624,108.74125 11.56961,19.1516 12.70964,19.94623 23.788385,16.58117 3.93255,-1.19447 9.68504,-3.31358 12.78332,-4.70913 9.85426,-4.43862 19.48491,-7.42007 24.38711,-7.54973 5.90675,-0.15624 8.23073,1.80768 13.11142,11.08003 1.92102,3.64956 9.83837,16.51167 17.5941,28.58247 7.75574,12.0708 14.38167,23.06384 14.7243,24.42899 0.85077,3.38974 -2.49108,9.40999 -10.07926,18.15747 -6.89942,7.9535 -12.95288,12.43939 -19.00983,14.08714 -9.73352,2.64793 -24.54514,3.44573 -35.11806,1.89155 z"
     style="fill:#000000" />
</svg>
