<?xml version="1.0" encoding="UTF-8" standalone="no"?>
<svg
   xmlns:dc="http://purl.org/dc/elements/1.1/"
   xmlns:cc="http://creativecommons.org/ns#"
   xmlns:rdf="http://www.w3.org/1999/02/22-rdf-syntax-ns#"
   xmlns:svg="http://www.w3.org/2000/svg"
   xmlns="http://www.w3.org/2000/svg"
   viewBox="0 0 375.707 485.53412"
   height="485.53412"
   width="375.707"
   version="1.1"
   id="svg3372">
  <metadata
     id="metadata3378">
    <rdf:RDF>
      <cc:Work
         rdf:about="">
        <dc:format>image/svg+xml</dc:format>
        <dc:type
           rdf:resource="http://purl.org/dc/dcmitype/StillImage" />
        <dc:title></dc:title>
      </cc:Work>
    </rdf:RDF>
  </metadata>
  <defs
     id="defs3376" />
  <path
     id="path3382"
     d="m 256.04114,484.47209 c -14.13628,-2.69735 -27.43119,-8.00818 -43.20219,-17.2577 -14.10588,-8.27294 -52.30081,-34.10362 -62.10145,-41.9983 C 117.83981,398.71607 84.408768,356.83665 53.88324,303.88571 31.72458,265.44832 16.61439,228.15599 9.7767803,195.02988 7.2419303,182.74928 1.1815203,134.87323 0.24492025,119.73002 -1.2640697,95.332361 4.2246603,71.798441 16.02174,52.084004 25.30842,36.564777 42.58482,17.796813 55.92013,8.7409743 c 10.107,-6.863531 14.97599,-8.12004596 33.462458,-8.63548496 16.806092,-0.468586 27.172822,0.616232 32.572522,3.40852096 4.338,2.243269 6.62433,8.2548727 16.11475,42.3716997 8.54622,30.722491 10.5399,37.209751 17.05642,55.5 5.1786,14.53507 4.70505,19.3193 -2.58396,26.10503 -5.60617,5.21909 -11.618,8.79773 -30.41749,18.10652 -20.63052,10.21545 -28.836522,15.33503 -31.605072,19.71787 -3.07238,4.86381 -1.94716,13.16046 4.68858,34.57058 7.641262,24.65442 14.224972,41.347 23.559682,59.73412 17.26759,34.01297 37.55328,60.02416 71.66571,91.89286 14.20053,13.2665 20.0151,17.37302 24.59908,17.37302 4.15633,0 15.75551,-6.58155 27.17419,-15.41906 16.62048,-12.86345 31.18325,-22.37889 37.10739,-24.24631 8.95778,-2.8237 11.62342,-1.44957 26.70253,13.76501 7.04546,7.10875 24.30801,23.34244 38.36121,36.07486 25.77262,23.35038 31.32887,29.26867 31.32887,33.3702 0,6.97809 -9.15085,28.36773 -17.73527,41.4553 -6.96505,10.61872 -15.74597,16.58874 -33.76473,22.95616 -17.79983,6.29005 -27.57245,8.15663 -45,8.59504 -10.93835,0.27517 -18.26694,-0.0301 -23.16586,-0.96482 z"
     style="fill:#ffffff" />
</svg>
