<?xml version="1.0" encoding="UTF-8" standalone="no"?>
<svg
   xmlns:dc="http://purl.org/dc/elements/1.1/"
   xmlns:cc="http://creativecommons.org/ns#"
   xmlns:rdf="http://www.w3.org/1999/02/22-rdf-syntax-ns#"
   xmlns:svg="http://www.w3.org/2000/svg"
   xmlns="http://www.w3.org/2000/svg"
   viewBox="0 0 590.16858 230"
   height="230"
   width="590.16858"
   version="1.1"
   id="svg3394">
  <metadata
     id="metadata3400">
    <rdf:RDF>
      <cc:Work
         rdf:about="">
        <dc:format>image/svg+xml</dc:format>
        <dc:type
           rdf:resource="http://purl.org/dc/dcmitype/StillImage" />
        <dc:title></dc:title>
      </cc:Work>
    </rdf:RDF>
  </metadata>
  <defs
     id="defs3398" />
  <path
     id="path3404"
     d="m 0,214.11828 0,-15.88173 8.75,-0.70249 c 4.8125,-0.38637 13.671389,-1.33959 19.68642,-2.11827 C 34.451451,194.6371 39.738951,194 40.18642,194 40.633889,194 41,187.475 41,179.5 41,169.99718 40.636457,165 39.945131,165 37.221244,165 26.477122,156.29534 22.4517,150.82719 11.316897,135.70163 11.350373,116.2529 22.53737,101.05644 27.467913,94.358771 35.446848,88.55662 44.854182,84.82802 c 8.172031,-3.23899 26.119611,-3.23899 34.291643,0 19.0607,7.554721 30.854185,23.292 30.854185,41.17198 0,12.78329 -7.75165,27.55244 -17.966975,34.23235 l -4.9971,3.26765 -0.018,10.75 c -0.0102,6.12254 0.39027,10.75 0.93041,10.75 1.93635,0 17.689755,-5.30052 21.551615,-7.25143 2.2,-1.11139 8.95,-6.16378 15,-11.22753 20.82513,-17.43032 33.8091,-24.326 54.5,-28.94449 1.53599,-0.34285 24.4794,-22.01158 59.49999,-56.19429 l 57,-55.63625 9.52039,10.08523 9.52039,10.08524 17.07096,-16.38961 17.07096,-16.38962 2.7251,2.68138 2.72512,2.68137 -50.81643,50.2071 -50.81644,50.20708 25.25,0.0429 25.25,0.0429 0,-9 0,-9 3.5,0 3.5,0 0,21.5 0,21.5 -3.5,0 -3.5,0 0,-9 0,-9 -29.27889,0 -29.27889,0 -6.41512,6.47266 c -3.52832,3.55996 -6.21532,6.62855 -5.97111,6.81909 0.24421,0.19055 3.36901,1.1308 6.94401,2.08945 11.21853,3.00829 23.71496,8.46576 48.5,21.18102 13.19999,6.77189 27.48135,13.47477 31.73633,14.8953 6.05531,2.02156 16.70245,3.65429 49,7.51407 22.69502,2.71222 46.21366,5.41506 52.26367,6.00632 6.05,0.59126 12.45388,1.30688 14.23083,1.59027 l 3.23084,0.51525 -3.43659,-9.87307 C 422.34661,148.22256 399.01356,104.07522 377.99999,76.262 367.2186,61.99192 365.7891,59.77738 366.78874,58.8939 368.94819,56.98538 482.2003,0 483.83382,0 c 1.86741,0 3.55495,2.6091801 15.09431,23.338 l 2.13654,3.83799 -6.16971,6.59545 c -7.09574,7.58537 -10.24101,13.79755 -10.26368,20.27168 -0.0128,3.6462 1.1966,6.85162 6.12574,16.23628 7.48923,14.25885 20.48586,34.85204 29.24297,46.33555 19.18272,25.15499 25.90175,35.87705 32.55602,51.95206 2.81978,6.81187 3.92309,11.24991 4.7293,19.02355 l 1.05152,10.13898 8.08158,0.62924 c 4.44487,0.34608 11.09151,0.63193 14.77031,0.63523 l 6.68872,0.006 0.52588,4.25 c 0.28923,2.3375 0.80473,9.3125 1.14556,15.5 L 590.16856,230 295.08428,230 3e-6,230 l 0,-15.88172 z M 582,213.5 l 0,-6.5 -7.53878,0 c -11.46641,0 -69.18061,-1.8694 -93.96123,-3.04347 -34.22402,-1.62147 -61.86871,-4.32061 -127.79171,-12.47717 -34.46456,-4.26425 -37.78262,-5.30336 -70.11152,-21.95668 -36.0676,-18.57921 -45.52151,-21.85492 -71.43061,-24.75019 -18.33576,-2.04897 -38.82243,1.44338 -54.53266,9.29615 -9.1793,4.58827 -14.29222,8.21914 -28.46641,20.21501 -5.70826,4.831 -12.01856,9.60634 -14.02287,10.61187 C 98.787745,192.59953 59.48279,200.63984 13.25,205.53467 L 7,206.19637 7,213.09819 7,220 l 287.5,0 287.5,0 0,-6.5 z m -32.69741,-22.25 c -0.61009,-8.81643 -2.59897,-15.87441 -7.33128,-26.01664 C 536.20607,152.87737 528.88076,141.27347 519.2632,129.26177 504.78471,111.17911 482.83491,76.02509 477.89005,63 c -3.87875,-10.21686 -1.16653,-20.44409 8.60234,-32.43762 2.47918,-3.04377 4.5076,-5.83376 4.5076,-6.19998 0,-0.51866 -8.55576,-15.9689099 -9.48472,-17.1277899 C 481.2567,6.9120301 378.84388,58.96696 377.6694,60.01794 c -0.45683,0.40878 1.69397,4.01069 4.77954,8.00423 3.08557,3.99354 6.01827,7.98477 6.51711,8.86941 0.78615,1.39413 2.57834,0.77764 13.45213,-4.62737 l 12.54514,-6.2358 1.59207,3.07873 c 0.87564,1.6933 1.44639,3.21052 1.26834,3.37161 -0.17806,0.16109 -5.5708,2.93177 -11.98387,6.15707 L 394.17972,84.5 l 4.66014,7.147141 4.66013,7.14713 10.70706,-5.38446 10.70707,-5.384461 0.66297,3.533951 c 0.36464,1.94368 0.49646,3.68601 0.29294,3.87186 -0.20352,0.18584 -4.53761,2.42192 -9.63131,4.969059 l -9.26126,4.63117 3.06188,5.2343 c 10.42909,17.82857 26.64622,53.232 33.31717,72.73431 l 3.59162,10.5 7.77593,0.66085 c 9.70286,0.82462 64.66013,3.13995 86.41078,3.64045 l 8.63484,0.1987 -0.46709,-6.75 z M 61.5,190.4602 c 4.95,-0.88195 11.137495,-2.05858 13.749995,-2.61473 l 4.75,-1.0112 0,-9.98452 c 0,-9.90152 -0.0187,-9.97852 -2.25,-9.26275 -7.870605,2.52481 -18.846375,3.15568 -25.999995,1.49445 l -3.75,-0.87083 0,12.41374 c 0,12.3512 0.01134,12.41129 2.25,11.92656 1.2375,-0.26795 6.3,-1.20878 11.25,-2.09072 z m 8.54035,-29.46785 c 12.731755,-2.41453 22.791845,-9.8435 28.196555,-20.82202 2.787855,-5.66294 3.236765,-7.62826 3.236765,-14.17033 0,-6.54207 -0.44891,-8.50739 -3.236765,-14.17033 -14.14497,-28.73252 -58.328844,-28.73252 -72.473815,0 -6.171894,12.5369 -3.81682,26.6475 6.274739,37.59554 8.841964,9.5924 24.033371,14.21633 38.002521,11.56714 z M 265.98882,94.082541 309.47764,51.24953 302.74817,44.11594 c -3.70121,-3.92347 -7.02072,-7.19326 -7.37669,-7.26618 -0.35597,-0.0729 -23.44871,22.09354 -51.31718,49.25882 L 193.38433,135.5 l 11.05783,0.55053 c 6.08181,0.3028 12.63283,0.6213 14.55783,0.70778 3.33198,0.1497 5.58772,-1.89899 46.98883,-42.675769 z"
     style="fill:#45912e" />
</svg>
