<?xml version="1.0" encoding="UTF-8" standalone="no"?>
<svg
   xmlns:dc="http://purl.org/dc/elements/1.1/"
   xmlns:cc="http://creativecommons.org/ns#"
   xmlns:rdf="http://www.w3.org/1999/02/22-rdf-syntax-ns#"
   xmlns:svg="http://www.w3.org/2000/svg"
   xmlns="http://www.w3.org/2000/svg"
   viewBox="0 0 408.20367 408.65909"
   height="408.65909"
   width="408.20367"
   version="1.1"
   id="svg3396">
  <metadata
     id="metadata3402">
    <rdf:RDF>
      <cc:Work
         rdf:about="">
        <dc:format>image/svg+xml</dc:format>
        <dc:type
           rdf:resource="http://purl.org/dc/dcmitype/StillImage" />
        <dc:title></dc:title>
      </cc:Work>
    </rdf:RDF>
  </metadata>
  <defs
     id="defs3400" />
  <path
     id="path3406"
     d="m 371.06124,408.09825 c -2.28594,-0.46812 -5.88594,-1.75144 -8,-2.85183 -2.16534,-1.12707 -22.83662,-21.0249 -47.33944,-45.56815 -23.92263,-23.96209 -43.99251,-43.56744 -44.59974,-43.56744 -0.60723,0 -5.33417,2.55405 -10.50431,5.67566 -17.12931,10.34229 -37.20213,17.80297 -57.78964,21.47929 -16.32509,2.91518 -42.92382,2.91003 -59.28832,-0.0115 C 99.144427,335.32855 58.634794,310.32706 33.399844,275.27879 -9.7393158,215.36374 -11.201306,137.38594 29.663284,75.981752 42.282284,57.02012 56.241714,43.05008 75.621954,29.988157 122.27039,-1.4520233 179.32875,-8.5593433 232.00513,10.508727 c 42.64177,15.43569 75.98744,45.403046 95.73132,86.032592 7.43042,15.290541 11.33257,26.568911 14.69328,42.467951 2.38787,11.29665 2.66808,14.77612 2.70605,33.60155 0.0364,18.03712 -0.2821,22.6161 -2.25727,32.4544 -4.32302,21.53285 -12.3843,42.2655 -22.53457,57.95621 -2.54455,3.93347 -4.62645,7.47717 -4.62645,7.87489 0,0.39772 19.6061,20.29619 43.56912,44.21882 31.07589,31.02352 44.33383,44.92941 46.23597,48.49569 2.28277,4.2799 2.66887,6.22416 2.68088,13.5 0.0114,6.88173 -0.42624,9.39383 -2.29849,13.19487 -6.34692,12.8855 -21.36279,20.55318 -34.84373,17.79255 z M 199.76806,279.79246 c 18.8326,-4.86118 34.38794,-13.45458 48.33321,-26.70123 23.61826,-22.43505 34.61622,-48.0757 34.61622,-80.70432 0,-33.82474 -13.37923,-62.19139 -39.7501,-84.278161 -23.00731,-19.269639 -49.50437,-27.456223 -80.40821,-24.843077 -18.39161,1.555145 -35.92187,7.7133 -50.88705,17.875947 -15.185383,10.3122 -30.527573,28.016111 -38.524596,44.454941 -11.71088,24.07309 -13.67557,56.80136 -4.94988,82.45596 13.056483,38.38765 47.937546,67.69288 88.104586,74.02085 10.54328,1.661 32.69865,0.49838 43.46582,-2.28091 z"
     style="fill:#222222" />
</svg>
