<?xml version="1.0" encoding="UTF-8" standalone="no"?>
<svg
   xmlns:dc="http://purl.org/dc/elements/1.1/"
   xmlns:cc="http://creativecommons.org/ns#"
   xmlns:rdf="http://www.w3.org/1999/02/22-rdf-syntax-ns#"
   xmlns:svg="http://www.w3.org/2000/svg"
   xmlns="http://www.w3.org/2000/svg"
   viewBox="0 0 541 332"
   height="332"
   width="541"
   version="1.1"
   id="svg3406">
  <metadata
     id="metadata3412">
    <rdf:RDF>
      <cc:Work
         rdf:about="">
        <dc:format>image/svg+xml</dc:format>
        <dc:type
           rdf:resource="http://purl.org/dc/dcmitype/StillImage" />
        <dc:title></dc:title>
      </cc:Work>
    </rdf:RDF>
  </metadata>
  <defs
     id="defs3410" />
  <path
     id="path3416"
     d="m 358.58084,325.25 c -0.34217,-3.7125 -4.65958,-63.45 -9.59424,-132.75 -4.93466,-69.3 -9.31287,-128.250004 -9.72936,-131.000004 -0.6047,-3.99276 -2.64022,11.61947 -10.1044,77.500004 -5.14094,45.375 -9.81342,86.2125 -10.3833,90.75 l -1.03615,8.25 -4.73889,0 c -4.71109,0 -4.74214,-0.022 -5.29182,-3.75 -0.3041,-2.0625 -2.70334,-22.07078 -5.33163,-44.46284 -2.62829,-22.39207 -4.93131,-40.56025 -5.11781,-40.37374 -0.2452,0.24519 -10.1143,131.09782 -10.23644,135.72304 -0.0185,0.69842 -8.97462,2.23907 -9.56782,1.64586 -0.20224,-0.20224 -3.98873,-23.48873 -8.41442,-51.74775 -4.42568,-28.25902 -8.17656,-51.50989 -8.33528,-51.66861 -0.15871,-0.15872 -2.7115,8.80651 -5.67286,19.92273 -2.96136,11.11622 -5.77493,21.67381 -6.25237,23.46131 -0.83015,3.10803 -1.08274,3.25 -5.78252,3.25 -4.84074,0 -4.92892,-0.0562 -5.87925,-3.75 -0.53064,-2.0625 -2.58559,-10.05 -4.56657,-17.75 -1.98098,-7.7 -3.84083,-14.66879 -4.133,-15.4862 -0.35279,-0.98699 -1.85588,0.59723 -4.47483,4.71634 -2.16898,3.41141 -4.81274,6.6677 -5.87501,7.23621 C 216.89008,205.594 206.8754,206 192.56573,206 l -23.56574,0 0,-5 0,-5 22.28439,0 22.28439,0 1.90895,-3.25 c 1.04992,-1.7875 3.83148,-6.2299 6.18126,-9.87201 l 4.27231,-6.622 4.07399,0.74498 c 2.2407,0.40974 4.32306,0.99404 4.62747,1.29846 0.30441,0.30441 2.11515,6.75078 4.02386,14.32526 1.90871,7.57449 3.74663,14.21876 4.08425,14.76505 0.47589,0.77 9.21926,-29.81576 13.61849,-47.63974 0.62427,-2.52927 1.0685,-2.75 5.53469,-2.75 4.50554,0 4.89322,0.19845 5.37239,2.75 0.28404,1.5125 3.1433,19.7375 6.35391,40.5 3.21061,20.7625 6.08789,37.75 6.39395,37.75 0.30606,0 2.71069,-30.0375 5.34362,-66.75 2.63294,-36.7125 5.03682,-69.07293 5.34196,-71.912084 l 0.55482,-5.16207 4.83274,-0.33793 4.83275,-0.33792 0.60524,5 C 301.8583,101.25 304.50978,123.3 307.4176,147.5 c 2.90782,24.2 5.55943,42.875 5.89246,41.5 0.33302,-1.375 5.13271,-42.775 10.66595,-92.000004 C 329.50926,47.775 334.29281,5.8125 334.60613,3.75 335.17534,0.00293 335.17962,0 340.08789,0 c 2.70165,0 4.9121,0.12706 4.9121,0.28235 0,0.15529 4.275,59.380916 9.5,131.61251 5.225,72.23159 9.5,132.70454 9.5,134.38432 0,9.66931 1.6426,-4.99198 7.4827,-66.78789 4.54089,-48.04855 6.88766,-69.10855 7.76287,-69.66422 0.68994,-0.43804 2.89385,-0.80334 4.89758,-0.81176 l 3.64315,-0.0153 1.00147,5.75 c 0.55081,3.1625 3.40271,20.2625 6.33755,38 2.93484,17.7375 5.57185,32.25 5.86002,32.25 0.28818,0 3.36732,-11.7 6.84255,-26 l 6.3186,-26 4.8241,0 4.8241,0 1.04561,6.25 c 0.57508,3.4375 2.27132,14.35 3.76941,24.25 1.4981,9.9 3.01938,18.34811 3.38063,18.77358 0.36125,0.42547 2.84621,-5.06677 5.52213,-12.20498 l 4.86532,-12.97856 4.5611,0.59586 c 2.50861,0.32772 4.66864,0.67749 4.80006,0.77726 0.13142,0.0998 3.72884,18.00146 7.99427,39.78152 4.26543,21.78006 7.90391,39.45153 8.08551,39.26993 0.1816,-0.1816 3.65139,-13.03359 7.71065,-28.55996 5.46711,-20.91131 7.95584,-28.84224 9.59986,-30.59222 l 2.21939,-2.36243 26.82568,0 26.82569,0 0,4.98253 0,4.98253 -24.6667,0.26747 -24.6667,0.26747 -9.16918,35 c -5.04304,19.25 -9.4766,36.2375 -9.85235,37.75 -0.63113,2.54049 -1.06265,2.75 -5.66412,2.75 -2.73952,0 -4.98095,-0.14635 -4.98095,-0.32521 0,-0.17887 -3.6,-18.70752 -8,-41.17479 -4.4,-22.46727 -8.00689,-41.33342 -8.01531,-41.92479 -0.0299,-2.09869 -1.78229,1.77895 -6.54208,14.47601 l -4.8204,12.85874 -4.5611,-0.59586 c -2.50861,-0.32772 -4.66701,-0.67586 -4.79644,-0.77364 -0.12942,-0.0978 -1.60784,-9.14688 -3.28535,-20.10912 -1.67752,-10.96224 -3.37163,-20.72885 -3.76468,-21.70358 -0.45269,-1.12261 -3.03244,7.76629 -7.03788,24.25 l -6.32325,26.02224 -4.8199,0 -4.81991,0 -0.99846,-5.75 c -0.54916,-3.1625 -2.93239,-17.41955 -5.29607,-31.68233 -2.36369,-14.26278 -4.42568,-25.51278 -4.58219,-25 -0.15652,0.51278 -3.4425,34.68233 -7.30218,75.93233 -3.85967,41.25 -7.29831,77.3625 -7.64142,80.25 l -0.62383,5.25 -4.78328,0 -4.78329,0 -0.62213,-6.75 z m -272.580846,-57.41734 -38.5,-32.81244 -23.74999,-0.0101 L 0,235.00002 l 0,-37.5 0,-37.5 23.127634,0 23.12763,0 39.38198,-31.51542 39.381976,-31.515424 3.99528,2.03824 3.99528,2.038244 -0.25489,98.13124 -0.2549,98.13124 -4,1.66848 -4,1.66849 -38.499996,-32.81243 z m 36.760506,-112.43217 -0.26051,-43.59952 -35.249996,28.19719 -35.25,28.19719 0,28.85153 0,28.85153 35.25,29.96132 35.249996,29.96132 0.26051,-43.41052 c 0.14328,-23.87579 0.14328,-63.03031 0,-87.01004 z M 41.999994,197.5 l 0,-27.5 -15.99999,0 L 10,170 l 0,27.5 0,27.5 16.000004,0 15.99999,0 0,-27.5 z"
     style="fill:#45912e" />
</svg>
