<?xml version="1.0" encoding="UTF-8" standalone="no"?>
<svg
   xmlns:dc="http://purl.org/dc/elements/1.1/"
   xmlns:cc="http://creativecommons.org/ns#"
   xmlns:rdf="http://www.w3.org/1999/02/22-rdf-syntax-ns#"
   xmlns:svg="http://www.w3.org/2000/svg"
   xmlns="http://www.w3.org/2000/svg"
   viewBox="0 0 569.45996 300.37149"
   height="300.37149"
   width="569.45996"
   version="1.1"
   id="svg3418">
  <metadata
     id="metadata3424">
    <rdf:RDF>
      <cc:Work
         rdf:about="">
        <dc:format>image/svg+xml</dc:format>
        <dc:type
           rdf:resource="http://purl.org/dc/dcmitype/StillImage" />
        <dc:title></dc:title>
      </cc:Work>
    </rdf:RDF>
  </metadata>
  <defs
     id="defs3422" />
  <path
     id="path3428"
     d="m 492.32991,283.22949 c -12.925,-9.56378 -23.95,-17.39191 -24.5,-17.39584 -0.55,-0.004 -13.825,3.75698 -29.5,8.35757 -15.675,4.60058 -28.57949,8.29914 -28.67664,8.21902 -0.0972,-0.0801 3.83977,-13.4162 8.74872,-29.63571 4.90895,-16.21951 8.92594,-30.05527 8.92664,-30.74613 7.1e-4,-0.69085 -7.16106,-12.84085 -15.91504,-27 l -15.91632,-25.74389 4.16632,-0.67588 c 2.29148,-0.37173 11.59132,-0.71156 20.66632,-0.75517 9.075,-0.0436 20.868,-0.36856 26.20666,-0.7221 l 9.70667,-0.6428 18.77198,-24.35203 c 10.32459,-13.39361 19.00659,-24.34608 19.29334,-24.33882 0.28674,0.007 4.57135,12.8842 9.52135,28.61541 4.95,15.73121 9.45,29.19982 10,29.93024 0.55,0.73043 13.09062,6.05661 27.86804,11.83597 14.77742,5.77936 27.12242,10.76231 27.43333,11.07322 0.7157,0.7157 2.60604,-0.86188 -24.55137,20.48922 -16.87104,13.26398 -23.27361,18.864 -23.33604,20.41092 -0.92775,22.98786 -3.64263,60.02537 -4.41396,60.21703 -0.55,0.13667 -11.575,-7.57644 -24.5,-17.14023 z m 12.39273,-29.66723 c 1.07602,-26.00539 -0.63959,-22.37777 17.15679,-36.27775 8.45008,-6.6 15.3833,-12.25166 15.40714,-12.55924 0.0238,-0.30758 -8.07482,-3.68258 -17.99703,-7.5 l -18.04036,-6.94076 -6.1666,-19.26434 c -3.39164,-10.59539 -6.49132,-19.14539 -6.88819,-19 -0.39687,0.14539 -6.18959,7.35184 -12.87271,16.01434 l -12.15114,15.75 -17.67031,0.0703 c -9.71868,0.0386 -18.43633,0.37615 -19.37255,0.75 -1.43784,0.57413 -0.0924,3.29935 8.66187,17.54494 l 10.36412,16.86523 -1.38123,4.63477 c -0.75968,2.54912 -3.40299,11.36431 -5.87402,19.5893 -2.47102,8.225 -4.39469,15.05262 -4.27481,15.1725 0.11988,0.11988 8.53259,-2.22216 18.69491,-5.20453 10.16232,-2.98238 18.7097,-5.41556 18.99417,-5.40707 0.28447,0.008 7.49222,5.13884 16.01722,11.4008 8.525,6.26196 15.77432,11.21751 16.1096,11.01233 0.33529,-0.20518 0.91269,-7.69804 1.28313,-16.65081 z m -453.780183,41.0605 c -0.25842,-1.28604 -1.18004,-15.57883 -2.04804,-31.76176 -0.868,-16.18292 -1.68761,-29.50529 -1.82134,-29.60524 -14.81388,-11.07206 -47.65157016,-37.9593 -47.06533016,-38.53671 0.7052,-0.69459 19.25374016,-8.13646 47.41291016,-19.02256 l 7.59075,-2.93452 9.37277,-29.48873 c 5.15503,-16.2188 9.70061,-29.48873 10.10128,-29.48873 0.40068,0 9.192097,10.96678 19.536477,24.37062 l 18.807976,24.37062 30,0.72843 c 16.5,0.40064 30.12028,0.84164 30.26728,0.98 0.14701,0.13836 -6.94049,11.90451 -15.75,26.147 -8.8095,14.24249 -16.0017,26.57221 -15.98265,27.39938 0.019,0.82717 4.00977,14.55395 8.86829,30.50395 4.85852,15.95 8.70587,29.14957 8.54967,29.33237 -0.1562,0.1828 -13.03443,-3.37955 -28.61829,-7.91634 -15.58387,-4.53679 -28.78961,-8.24885 -29.3461,-8.24903 -0.75233,-2.5e-4 -39.094513,27.50186 -48.196993,34.57076 -0.85258,0.6621 -1.34727,0.24967 -1.67866,-1.39951 z m 31.000637,-40.1848 15.39583,-11.34655 18.568586,5.44013 c 10.21272,2.99206 18.7606,5.2481 18.99529,5.01341 0.23469,-0.23469 -2.0482,-8.67719 -5.07309,-18.76111 -3.02489,-10.08393 -5.4998,-18.99725 -5.4998,-19.80738 0,-0.81013 4.5,-8.7715 10,-17.69195 5.5,-8.92045 10,-16.50722 10,-16.8595 0,-0.35227 -3.30435,-0.6405 -7.343,-0.6405 -4.03865,0 -12.85783,-0.29653 -19.59819,-0.65896 L 105.13353,178.4666 92.981724,162.74018 c -6.6835,-8.64953 -12.387897,-15.58912 -12.676457,-15.4213 -0.28856,0.16781 -3.19545,8.8295 -6.45976,19.24819 l -5.93511,18.94308 -17.54024,6.81183 c -9.64714,3.7465 -17.87882,7.09431 -18.29263,7.43956 -0.41381,0.34526 6.38098,6.27877 15.09954,13.18559 l 15.85192,12.55785 0.67722,15.88976 c 0.69471,16.30022 1.4728,24.38977 2.34592,24.38977 0.27232,0 7.42326,-5.10595 15.890967,-11.34655 z M 219.33702,218.03451 c 0.004,-0.9625 2.02893,-18.57886 4.50005,-39.14748 3.64318,-30.32442 4.25652,-37.69781 3.24289,-38.98545 -0.68753,-0.87339 -12.21093,-13.88364 -25.60757,-28.91168 -13.39663,-15.028033 -24.10755,-27.573653 -23.80204,-27.879163 0.44858,-0.44858 26.43567,-5.921259 68.28089,-14.379427 l 5.12132,-1.035172 17.15181,-32.796322 c 9.43349,-18.037977 17.74206,-33.6035482 18.46349,-34.59015822 1.1626,-1.58994598 3.33076,2.05753302 19.07551,32.09050622 9.7701,18.636389 18.11121,34.253622 18.5358,34.704963 0.42459,0.45134 17.05421,4.112851 36.95471,8.136681 19.9005,4.02384 36.38053,7.513859 36.62227,7.755609 0.24175,0.24174 -11.10309,13.41206 -25.21074,29.267373 l -25.65028,28.82784 4.62754,39.04246 c 2.54515,21.47335 4.48913,39.18086 4.31996,39.35004 -0.16917,0.16917 -15.50663,-7.13344 -34.08324,-16.22801 -24.87982,-12.18045 -34.33847,-16.36002 -35.91257,-15.86894 -1.1753,0.36666 -16.42168,7.80583 -33.88085,16.53149 -17.45917,8.72566 -31.97167,15.86484 -32.25,15.86484 -0.27833,0 -0.50286,-0.7875 -0.49895,-1.75 z m 90.75752,-43.36778 c 12.57143,6.29069 22.2346,10.58131 22.2336,9.87213 -9.8e-4,-0.68989 -1.32838,-12.25729 -2.94978,-25.70532 l -2.94801,-24.45097 4.35524,-5.04903 c 2.39538,-2.77697 9.7941,-11.12403 16.44159,-18.54903 6.6475,-7.425 12.09004,-13.769023 12.09454,-14.097833 0.008,-0.5692 -19.08558,-4.77334 -38.53319,-8.48458 l -9.04138,-1.72539 -11.61352,-22.096099 C 293.7462,52.227753 288.13982,42.393784 287.67501,42.527345 c -0.4648,0.13356 -6.01024,10.078485 -12.32319,22.099833 l -11.4781,21.856999 -9.0219,1.72165 c -19.51716,3.72447 -38.52191,7.91314 -38.52191,8.49028 0,0.33399 6.80131,8.253023 15.11402,17.597833 8.31271,9.34481 15.70557,17.66557 16.42857,18.49057 1.09158,1.24557 0.82034,5.5709 -1.59912,25.5 -1.60252,13.2 -2.92038,24.7862 -2.92858,25.74712 -0.0118,1.3786 4.68143,-0.59828 22.24974,-9.37213 l 22.26463,-11.11925 22.23537,11.12648 z"
     style="fill:#45912e" />
</svg>
