<?xml version="1.0" encoding="UTF-8" standalone="no"?>
<svg
   xmlns:dc="http://purl.org/dc/elements/1.1/"
   xmlns:cc="http://creativecommons.org/ns#"
   xmlns:rdf="http://www.w3.org/1999/02/22-rdf-syntax-ns#"
   xmlns:svg="http://www.w3.org/2000/svg"
   xmlns="http://www.w3.org/2000/svg"
   viewBox="0 0 361.00003 432.73264"
   height="432.73264"
   width="361.00003"
   version="1.1"
   id="svg3384">
  <metadata
     id="metadata3390">
    <rdf:RDF>
      <cc:Work
         rdf:about="">
        <dc:format>image/svg+xml</dc:format>
        <dc:type
           rdf:resource="http://purl.org/dc/dcmitype/StillImage" />
        <dc:title></dc:title>
      </cc:Work>
    </rdf:RDF>
  </metadata>
  <defs
     id="defs3388" />
  <path
     id="path3394"
     d="m 0,390.45642 c 0,-23.33647 0.46681,-45.99913 1.04199,-50.58627 3.64015,-29.03071 24.8189,-53.53862 53.458014,-61.86124 5.52597,-1.60587 15.19591,-1.76688 122.395736,-2.03801 124.77999,-0.31558 125.06438,-0.30594 138.25008,4.68884 16.52486,6.25966 32.10993,21.33305 39.96166,38.64969 5.57963,12.3056 5.85613,15.4434 5.87516,66.67322 l 0.0174,46.75 -180.5,0 -180.5,0 0,-42.27623 z M 165.50343,256.63035 c -33.56847,-4.11821 -62.49406,-20.79036 -83.968266,-48.3977 -11.65283,-14.98093 -18.31256,-28.56826 -23.24008,-47.41491 -3.41872,-13.07585 -4.35608,-40.77576 -1.86407,-55.08509 2.19283,-12.591375 7.62973,-28.572705 13.19266,-38.778765 C 82.432214,43.454596 104.52477,22.46278 128.30145,11.199656 160.77428,-4.1828696 204.20185,-3.6781226 236.5,12.457218 c 16.44742,8.216716 37.50934,26.757668 48.31574,42.532678 7.85854,11.471759 14.84601,26.891109 18.33279,40.455249 2.50744,9.754335 3.12456,14.478205 3.57782,27.387045 0.86883,24.74443 -2.69683,43.04613 -12.16735,62.45223 -17.36246,35.57752 -50.4439,61.88816 -87.23905,69.38379 -12.0643,2.45765 -30.66368,3.33038 -41.81652,1.96214 z"
     style="fill:#ffffff" />
</svg>
